<?xml version="1.0" standalone="no"?>
<!DOCTYPE svg PUBLIC "-//W3C//DTD SVG 20010904//EN"
 "http://www.w3.org/TR/2001/REC-SVG-20010904/DTD/svg10.dtd">
<svg version="1.0" xmlns="http://www.w3.org/2000/svg"
 width="400.000000pt" height="180.000000pt" viewBox="0 0 400.000000 180.000000"
 preserveAspectRatio="xMidYMid meet">

<g transform="translate(0.000000,180.000000) scale(0.100000,-0.100000)"
fill="#000000" stroke="none">
<path d="M523 1488 c-6 -7 -46 -112 -91 -233 -44 -121 -83 -228 -87 -238 -7
-16 -3 -18 35 -15 40 3 43 5 59 48 l17 45 94 0 94 0 17 -45 c16 -43 19 -45 59
-48 38 -3 42 -1 35 15 -3 10 -43 117 -87 238 -44 121 -85 226 -90 233 -6 6
-18 12 -28 12 -10 0 -22 -6 -27 -12z m65 -216 c18 -54 32 -101 32 -105 0 -4
-31 -7 -70 -7 -38 0 -70 3 -70 7 0 15 65 203 70 203 3 0 20 -44 38 -98z"/>
<path d="M1667 1493 c-4 -3 -7 -116 -7 -250 l0 -243 35 0 35 0 0 120 c0 115 1
122 25 145 29 30 68 32 95 5 18 -18 20 -33 20 -145 l0 -125 40 0 40 0 -1 123
c0 136 -11 181 -51 210 -34 25 -106 27 -142 3 l-26 -16 0 90 0 90 -28 0 c-16
0 -32 -3 -35 -7z"/>
<path d="M2785 1489 c-4 -6 2 -20 12 -32 77 -86 427 -493 462 -537 66 -83 113
-190 120 -277 l6 -73 75 87 c188 217 190 220 190 267 0 56 -12 73 -249 350
l-195 226 -207 0 c-137 0 -210 -4 -214 -11z"/>
<path d="M2014 1476 c-15 -40 21 -80 54 -60 37 24 21 74 -25 74 -13 0 -26 -6
-29 -14z"/>
<path d="M1217 1350 c-16 -5 -35 -14 -43 -21 -11 -9 -14 -8 -14 5 0 12 -9 16
-35 16 l-35 0 0 -175 0 -175 35 0 35 0 0 123 c0 116 1 125 23 145 24 23 71 30
82 12 10 -16 20 -12 38 19 22 38 22 37 -14 50 -36 12 -34 12 -72 1z"/>
<path d="M1413 1349 c-59 -17 -92 -94 -63 -148 11 -21 67 -46 127 -56 46 -7
66 -25 61 -52 -8 -42 -84 -51 -149 -17 -25 12 -28 12 -43 -11 -9 -13 -16 -27
-16 -29 0 -12 60 -35 106 -41 105 -14 174 29 174 111 0 54 -27 78 -108 95 -77
17 -92 25 -92 55 0 41 72 53 132 22 13 -6 21 -2 34 18 21 31 13 38 -59 54 -55
12 -61 11 -104 -1z"/>
<path d="M2277 1350 c-16 -5 -35 -14 -43 -21 -11 -9 -14 -8 -14 5 0 12 -9 16
-35 16 l-35 0 0 -175 0 -175 35 0 35 0 0 123 c0 116 1 125 23 145 24 23 71 30
82 12 10 -16 20 -12 38 19 22 38 22 37 -14 50 -36 12 -34 12 -72 1z"/>
<path d="M2485 1349 c-39 -11 -74 -43 -91 -85 -20 -48 -18 -152 4 -194 20 -38
89 -80 132 -80 34 0 92 17 114 33 17 12 17 14 -1 35 -17 21 -20 21 -61 7 -23
-8 -54 -12 -68 -9 -28 7 -64 49 -64 75 0 17 11 19 113 21 110 3 112 3 115 27
10 70 -42 152 -109 171 -39 11 -43 11 -84 -1z m97 -77 c10 -9 19 -28 20 -42 3
-25 2 -25 -74 -28 -85 -3 -90 1 -67 52 21 46 83 55 121 18z"/>
<path d="M766 1253 c20 -54 47 -129 61 -167 26 -71 25 -100 -3 -143 -8 -13
-23 -23 -34 -23 -16 0 -20 -7 -20 -30 0 -27 3 -30 34 -30 65 0 73 16 212 398
l33 92 -39 0 -39 0 -38 -115 c-20 -63 -40 -115 -43 -115 -3 0 -23 52 -44 115
l-39 115 -38 0 -38 0 35 -97z"/>
<path d="M2010 1176 l0 -176 38 0 37 0 -2 172 -2 173 -36 3 -35 3 0 -175z"/>
<path d="M2959 604 c-134 -157 -245 -289 -247 -295 -2 -5 84 -9 222 -9 l225 0
69 84 c45 55 76 103 87 137 25 73 16 159 -24 244 -32 70 -68 125 -80 125 -4 0
-117 -128 -252 -286z"/>
<path d="M445 846 c-42 -19 -84 -66 -95 -107 -13 -45 -13 -214 0 -261 31 -109
162 -159 270 -103 33 17 36 31 16 58 -12 16 -16 16 -49 2 -45 -19 -80 -19
-116 -1 -41 22 -51 55 -51 172 0 145 22 184 105 184 20 0 49 -7 65 -15 28 -14
30 -14 49 14 l21 29 -38 18 c-48 23 -138 28 -177 10z"/>
<path d="M1027 854 c-4 -4 -7 -97 -7 -206 0 -258 11 -288 109 -288 39 0 41 2
41 29 0 26 -4 30 -32 33 l-33 3 -5 215 -5 215 -30 3 c-17 2 -34 0 -38 -4z"/>
<path d="M1200 635 l0 -226 25 -24 c18 -19 35 -25 70 -25 43 0 45 1 45 29 0
26 -4 30 -32 33 l-33 3 -5 215 -5 215 -32 3 -33 3 0 -226z"/>
<path d="M785 713 c-36 -10 -77 -45 -91 -79 -18 -43 -18 -155 0 -198 39 -92
168 -112 240 -37 20 21 29 43 34 82 14 104 -7 179 -61 213 -25 17 -92 27 -122
19z m81 -71 c46 -31 46 -183 0 -214 -22 -15 -73 -8 -92 13 -27 30 -27 158 0
188 19 21 70 28 92 13z"/>
<path d="M1456 710 c-67 -21 -100 -78 -100 -175 0 -106 41 -166 123 -180 42
-7 105 6 135 28 16 11 17 17 6 36 -8 16 -16 20 -28 15 -9 -4 -39 -9 -67 -11
-59 -5 -81 8 -94 55 l-10 32 115 0 114 0 0 48 c0 54 -24 108 -60 134 -30 21
-95 30 -134 18z m107 -82 c9 -11 17 -31 17 -45 0 -23 -1 -24 -77 -21 -77 3
-78 3 -75 28 10 66 91 90 135 38z"/>
<path d="M2125 706 c-64 -29 -95 -87 -95 -180 0 -61 32 -131 69 -150 61 -32
147 -28 196 8 20 15 20 15 -1 36 -18 18 -25 20 -42 11 -32 -17 -97 -13 -120 7
-12 9 -24 29 -28 44 l-6 27 114 3 113 3 3 38 c9 111 -104 197 -203 153z m107
-76 c49 -49 36 -65 -52 -65 -63 0 -75 3 -78 18 -5 22 50 77 78 77 12 0 35 -13
52 -30z"/>
<path d="M1754 691 c-17 -11 -36 -34 -43 -52 -16 -45 -14 -173 3 -214 25 -58
107 -83 169 -51 27 15 27 15 27 -17 0 -69 -62 -103 -133 -73 -35 14 -37 14
-52 -7 -18 -26 -8 -38 44 -56 74 -24 157 -1 191 54 18 30 20 49 20 234 l0 201
-30 0 c-17 0 -33 -6 -36 -14 -5 -12 -9 -12 -32 0 -38 19 -91 17 -128 -5z m131
-66 c21 -21 25 -33 25 -88 0 -79 -20 -110 -70 -110 -49 0 -70 31 -70 105 0 67
11 95 43 108 35 14 46 12 72 -15z"/>
</g>
</svg>
