<?xml version="1.0" standalone="no"?>
<!DOCTYPE svg PUBLIC "-//W3C//DTD SVG 20010904//EN"
 "http://www.w3.org/TR/2001/REC-SVG-20010904/DTD/svg10.dtd">
<svg version="1.0" xmlns="http://www.w3.org/2000/svg"
 width="957.000000pt" height="958.000000pt" viewBox="0 0 957.000000 958.000000"
 preserveAspectRatio="xMidYMid meet">

<g transform="translate(0.000000,958.000000) scale(0.100000,-0.100000)"
fill="#000000" stroke="none">
<path d="M5986 7658 c-15 -24 -33 -112 -62 -305 l-16 -112 -37 -14 c-44 -18
-227 -72 -293 -86 -37 -9 -55 -7 -90 5 -71 26 -227 -3 -215 -39 7 -23 80 -39
157 -34 l76 5 22 -34 c28 -42 58 -152 73 -269 11 -81 15 -789 5 -880 -1 -16
-4 -55 -4 -87 l-2 -56 -97 -53 c-118 -63 -263 -157 -263 -170 0 -20 46 -7 104
29 85 53 245 137 251 130 3 -2 0 -159 -6 -349 -15 -508 9 -1139 47 -1196 16
-26 65 -31 82 -10 20 24 33 141 57 497 31 474 45 693 60 930 9 135 19 248 23
251 17 17 263 102 437 152 185 54 249 68 281 61 32 -6 62 16 49 36 -11 18
-117 11 -225 -15 -104 -26 -393 -120 -478 -156 -24 -10 -48 -19 -54 -19 -13 0
-7 105 28 490 38 427 78 793 90 831 3 10 41 29 97 49 50 18 177 66 281 107
519 203 703 252 904 240 111 -6 206 -33 275 -76 52 -34 60 -51 22 -51 -14 0
-25 -4 -25 -10 0 -15 84 -12 106 4 19 14 19 15 -1 43 -61 84 -334 154 -520
134 -218 -25 -394 -79 -984 -305 l-144 -55 7 47 c3 26 18 111 32 190 14 79 23
149 20 157 -9 23 -54 18 -70 -7z m-96 -515 c0 -16 -7 -84 -15 -153 -31 -260
-55 -516 -80 -835 -14 -181 -27 -330 -28 -330 -1 0 -19 -8 -40 -18 -21 -9 -43
-17 -49 -17 -8 0 -8 78 -2 288 19 598 5 810 -60 944 -35 74 -37 69 34 83 47 9
203 54 209 60 14 14 31 2 31 -22z m-128 -1439 c-2 -32 -9 -162 -17 -289 -7
-126 -16 -293 -20 -370 -10 -238 -49 -698 -54 -645 -18 186 -21 331 -15 796
l7 531 41 21 c22 11 46 19 51 18 6 -2 9 -28 7 -62z"/>
<path d="M1725 7540 c-9 -15 -70 -225 -83 -290 -97 -461 -192 -1038 -231
-1405 -39 -363 -45 -482 -46 -830 0 -293 3 -365 18 -445 44 -240 113 -328 246
-318 76 5 145 42 320 168 212 151 376 243 577 323 91 37 245 80 320 91 39 5
42 4 65 -32 33 -51 74 -55 117 -11 27 27 34 30 47 19 12 -10 19 -10 28 -1 11
11 2 24 -26 33 -4 2 6 33 22 70 17 37 76 201 132 365 79 232 314 879 323 890
1 1 28 5 61 9 l58 7 -6 -54 c-7 -58 -32 -373 -41 -504 -30 -457 -33 -863 -6
-917 14 -29 46 -46 60 -31 5 4 4 46 -1 93 -5 47 -6 126 -4 175 3 50 10 182 16
295 11 225 30 488 55 766 l17 181 109 7 c61 4 111 6 113 4 1 -2 -4 -55 -11
-118 -26 -222 -32 -357 -29 -585 4 -237 17 -357 53 -452 17 -47 18 -48 64 -51
91 -6 129 44 258 336 47 106 88 192 92 192 5 0 8 -19 8 -43 0 -64 36 -128 83
-146 33 -12 42 -12 83 4 73 28 200 162 299 318 13 21 14 27 4 27 -8 0 -34 -29
-59 -63 -64 -88 -186 -214 -237 -244 -41 -24 -45 -24 -68 -9 -31 21 -41 78
-37 218 2 56 3 58 37 72 72 30 133 122 142 214 5 46 3 57 -12 68 -71 52 -160
-42 -210 -221 -9 -33 -28 -85 -42 -115 -202 -436 -232 -496 -266 -532 -34 -36
-52 -28 -71 30 -29 92 -40 206 -39 427 1 200 24 557 42 645 l7 35 237 3 c216
2 276 9 215 26 -13 3 -119 6 -235 6 -244 0 -220 -14 -202 115 6 43 19 106 30
141 24 76 15 107 -29 102 -37 -4 -48 -33 -72 -184 -12 -71 -23 -139 -25 -150
-4 -16 -15 -23 -42 -28 -53 -8 -183 -8 -183 2 -1 4 11 108 26 232 15 124 25
237 21 251 -4 15 -16 29 -27 32 -43 11 -67 -30 -159 -270 -49 -127 -94 -240
-100 -251 -9 -16 -25 -21 -98 -26 -110 -9 -274 -24 -332 -32 l-44 -6 8 38 c8
43 64 241 101 352 26 80 23 96 -17 90 -19 -2 -34 -23 -72 -98 -107 -210 -199
-385 -207 -394 -4 -4 -73 -17 -152 -27 -78 -10 -165 -23 -191 -29 -26 -5 -68
-10 -93 -10 -48 0 -108 -25 -99 -40 9 -15 62 -11 285 19 113 15 208 26 211 25
9 -5 -59 -135 -123 -236 -146 -235 -240 -367 -324 -457 -52 -57 -59 -61 -73
-46 -13 13 -16 44 -18 177 -1 169 -4 181 -48 176 -19 -3 -20 -11 -20 -168 0
-140 3 -170 17 -192 21 -33 49 -42 96 -33 96 18 306 308 561 775 9 18 61 26
61 10 0 -6 -11 -71 -25 -144 -54 -293 -68 -445 -69 -721 -1 -143 3 -283 7
-311 l8 -50 -98 -18 c-54 -9 -159 -37 -233 -62 -239 -79 -443 -191 -725 -394
-189 -137 -253 -144 -305 -33 -47 100 -61 208 -67 498 -8 382 12 697 78 1220
62 495 123 832 226 1246 25 102 43 194 40 203 -7 18 -62 23 -72 6z m1975
-1151 c-12 -84 -23 -156 -26 -161 -6 -10 -94 -11 -94 0 -1 17 134 334 138 324
2 -6 -6 -80 -18 -163z m-711 -178 c-8 -41 -15 -51 -31 -51 -11 0 -18 3 -16 8
23 48 52 101 55 98 2 -2 -2 -26 -8 -55z m460 -206 c-28 -77 -69 -189 -91 -250
-22 -60 -71 -198 -108 -305 -90 -258 -160 -440 -200 -522 -32 -65 -34 -67 -64
-61 -17 3 -35 9 -40 13 -4 5 -12 64 -17 132 -13 176 6 449 51 763 18 120 62
345 69 346 3 0 105 10 226 22 146 15 221 19 223 12 1 -5 -21 -73 -49 -150z
m1157 -142 c-9 -50 -50 -135 -77 -159 l-21 -19 7 35 c9 45 74 180 87 180 6 0
8 -15 4 -37z m-1615 -1038 c-1 -15 -24 -12 -29 3 -3 9 2 13 12 10 10 -1 17 -7
17 -13z"/>
<path d="M7025 6338 c-37 -29 -55 -76 -55 -147 0 -56 2 -61 37 -90 l37 -30
-13 -53 c-53 -210 -230 -577 -288 -595 -21 -7 -35 76 -31 196 l3 116 -26 3
c-17 2 -29 11 -32 22 -3 11 -16 25 -31 31 -61 28 -115 -37 -169 -206 -61 -190
-70 -257 -36 -275 52 -28 92 12 175 173 l52 100 6 -64 c10 -86 22 -115 57
-129 67 -28 132 36 219 215 70 143 91 195 140 340 l38 110 48 -3 c62 -3 102
-28 136 -82 51 -84 62 -153 63 -385 0 -115 -4 -320 -9 -455 -8 -226 -8 -247 8
-263 39 -38 43 -25 49 141 2 86 12 243 22 347 23 254 17 456 -15 540 -47 122
-110 175 -230 192 -30 5 -55 13 -55 18 1 6 5 44 9 86 4 42 5 91 1 108 -13 62
-60 79 -110 39z m40 -178 c-6 -30 -8 -32 -17 -16 -11 20 -5 117 9 138 10 17
17 -75 8 -122z m-455 -466 c11 -33 9 -41 -33 -122 -68 -130 -97 -179 -97 -162
0 47 94 320 111 320 4 0 13 -16 19 -36z"/>
<path d="M2252 5874 c-12 -8 -22 -24 -22 -35 0 -17 6 -20 32 -17 25 2 33 9 39
30 5 19 3 28 -8 32 -19 8 -15 8 -41 -10z"/>
<path d="M7686 5835 c-29 -30 -57 -256 -60 -486 -1 -149 5 -169 54 -169 47 0
62 26 151 261 34 90 73 189 87 219 l25 55 12 -125 c14 -149 36 -210 83 -229
56 -24 93 -2 185 110 45 54 87 99 93 99 7 0 31 -22 53 -49 72 -85 133 -100
216 -52 51 29 225 186 225 202 0 19 -19 6 -128 -86 -154 -129 -180 -133 -252
-41 -78 102 -129 96 -227 -27 -69 -86 -122 -139 -134 -131 -17 10 -39 111 -48
224 -12 145 -21 170 -60 170 -53 0 -89 -59 -176 -290 -24 -63 -52 -135 -63
-160 l-21 -45 0 41 c-2 77 30 367 44 408 23 64 19 95 -11 106 -32 13 -30 13
-48 -5z"/>
<path d="M3733 4678 c-8 -14 -8 -20 -11 -80 -2 -32 -8 -41 -47 -68 -34 -23
-45 -27 -45 -15 0 8 -5 15 -11 15 -7 0 -8 -35 -5 -107 15 -296 16 -353 7 -353
-5 0 -30 -35 -55 -79 l-45 -78 -58 9 c-167 25 -873 140 -906 147 -31 8 -39 6
-51 -10 -11 -17 -17 -18 -47 -7 -52 17 -76 36 -89 68 -7 17 -16 30 -20 30 -8
0 -57 -124 -118 -300 -22 -63 -54 -149 -72 -190 -17 -41 -44 -109 -60 -150
-15 -41 -44 -115 -64 -163 -33 -81 -36 -96 -36 -191 0 -73 -4 -108 -14 -122
-14 -19 -15 -19 -22 0 -9 24 12 205 31 269 16 54 6 61 -25 17 -18 -25 -25 -28
-36 -19 -8 6 -14 20 -14 30 0 11 -5 19 -11 19 -8 0 -10 -16 -6 -50 3 -27 4
-50 2 -50 -3 0 -38 42 -78 93 -118 147 -152 168 -92 56 51 -94 45 -121 -10
-49 -27 35 -57 57 -39 29 4 -7 -11 0 -32 15 -52 35 -60 33 -28 -9 l26 -35 -28
-1 -29 -1 33 -14 c18 -8 30 -19 27 -24 -3 -6 10 -19 29 -31 20 -12 36 -27 36
-35 0 -7 13 -20 30 -29 33 -17 50 -43 50 -75 0 -11 7 -33 16 -48 11 -18 5 -14
-19 13 -20 21 -34 42 -32 45 2 4 -28 38 -67 76 -38 38 -65 59 -59 47 6 -12 11
-30 11 -41 0 -13 9 -22 24 -26 13 -3 40 -26 61 -52 l38 -46 -59 32 c-32 17
-67 29 -77 26 -10 -2 -48 6 -83 20 -74 28 -84 29 -84 11 0 -8 30 -27 66 -42
36 -15 68 -34 71 -41 2 -7 18 -16 34 -19 16 -4 42 -16 57 -28 34 -28 57 -42
108 -68 35 -18 40 -26 43 -57 1 -22 11 -47 25 -62 18 -18 22 -30 16 -45 -5
-11 -9 -33 -9 -48 l-1 -29 -30 30 c-43 44 -84 55 -112 33 -29 -24 -15 -43 42
-60 22 -6 40 -14 40 -17 0 -4 -11 -15 -25 -26 -29 -23 -25 -39 8 -30 20 5 21
4 8 -11 -8 -10 -25 -16 -40 -15 -24 3 -26 0 -29 -38 -2 -22 6 -85 18 -139 11
-54 18 -100 17 -102 -2 -2 -45 -9 -96 -17 -50 -7 -95 -17 -99 -21 -8 -8 91 2
153 16 72 16 133 11 145 -10 8 -16 6 -20 -8 -23 -12 -3 -6 -9 21 -21 39 -17
54 -54 17 -42 -36 12 -21 -14 25 -41 35 -20 43 -29 35 -39 -8 -10 -30 -4 -103
28 -51 22 -104 48 -119 58 -14 11 -31 19 -37 19 -21 0 -11 -17 16 -29 l28 -13
-23 -18 c-12 -10 -22 -24 -22 -30 0 -7 -7 -10 -16 -6 -9 4 -14 1 -12 -6 2 -6
23 -17 46 -24 24 -6 49 -17 56 -23 7 -6 27 -8 45 -5 28 6 37 2 64 -28 18 -19
37 -43 44 -54 10 -16 13 -17 22 -4 15 21 41 -7 65 -69 12 -30 27 -52 39 -55
10 -2 16 -9 13 -15 -7 -11 29 -25 44 -16 6 4 8 11 5 16 -4 5 -1 9 4 9 6 0 11
4 11 9 0 6 -17 11 -37 13 -52 4 -52 32 -1 33 39 2 61 18 72 52 6 20 5 21 -21
14 -22 -6 -34 -4 -51 9 -27 22 -18 31 19 18 46 -16 58 -2 14 18 -22 10 -42 20
-44 21 -2 1 2 9 9 18 11 13 19 12 64 -15 50 -28 54 -29 97 -16 69 21 340 58
400 54 l54 -3 -85 -13 c-171 -26 -321 -58 -329 -70 -4 -7 -24 -14 -43 -15 -40
-3 -71 -24 -64 -43 3 -7 0 -14 -6 -16 -6 -2 8 -16 30 -30 38 -26 40 -26 45 -7
3 12 11 17 21 13 9 -3 16 -1 16 5 0 6 7 11 15 11 26 0 17 17 -16 31 -31 12
-31 13 -9 21 13 5 26 5 29 0 12 -17 39 -21 45 -6 8 20 20 17 31 -8 10 -21 65
-36 65 -17 0 5 23 9 50 9 37 0 50 4 50 14 0 8 -4 18 -10 21 -15 9 -12 48 3 42
6 -2 11 -12 9 -21 -2 -9 4 -19 12 -22 8 -3 12 -12 10 -19 -3 -7 -1 -16 4 -19
13 -8 82 5 82 16 0 13 26 38 39 38 14 0 14 -13 0 -27 -14 -14 -2 -21 41 -23
51 -3 54 -2 40 15 -18 22 -5 30 26 16 26 -11 38 -9 40 10 1 5 2 14 3 19 2 21
21 9 21 -15 0 -14 8 -29 19 -35 28 -15 33 -13 26 10 -5 16 -2 20 15 20 11 0
23 7 27 16 3 10 13 14 25 11 17 -5 19 -2 14 19 -4 13 -2 24 3 24 5 0 11 -9 14
-20 4 -15 13 -20 39 -20 l33 1 -23 19 c-16 13 -19 21 -11 26 7 4 20 -2 30 -15
16 -19 18 -20 22 -4 4 17 5 17 6 1 1 -25 21 -23 21 2 0 25 17 26 24 2 7 -20
46 -48 46 -31 0 6 8 8 20 4 16 -5 20 -2 20 17 1 20 2 21 11 6 15 -26 29 -22
29 9 0 26 1 26 15 7 14 -18 14 -18 15 9 0 22 -6 30 -22 35 l-23 6 24 6 c23 5
23 6 7 23 -15 15 -15 17 -2 17 9 0 16 4 16 9 0 5 9 13 20 16 11 3 20 10 20 14
0 5 -127 -14 -282 -40 -164 -28 -329 -51 -393 -53 -109 -5 -287 -27 -368 -46
-73 -17 -112 -12 -185 24 l-70 33 21 21 c18 19 19 24 8 46 -21 39 -8 56 41 56
24 0 54 3 68 7 22 6 23 4 12 -9 -11 -13 -7 -16 30 -21 23 -3 73 -4 112 -2 68
4 69 4 26 -6 -25 -6 -52 -17 -60 -25 -18 -17 -10 -17 65 1 70 17 145 19 145 5
0 -5 -10 -10 -22 -11 -21 0 -22 -1 -4 -8 19 -7 19 -8 -2 -13 -12 -4 -22 -14
-22 -23 0 -11 6 -15 18 -11 9 3 61 10 115 17 53 7 97 16 97 20 0 16 -32 31
-72 34 -57 4 -98 15 -128 34 -13 9 -25 15 -27 14 -1 -1 -16 3 -33 8 -35 13
-43 49 -10 49 21 0 29 20 8 20 -7 1 -73 13 -146 29 -73 15 -135 24 -138 19 -6
-9 -59 -11 -91 -2 -21 6 -23 12 -23 80 l0 74 32 -7 c22 -4 29 -3 24 5 -4 7
-16 12 -27 12 -15 0 -19 7 -19 36 l0 37 63 -6 c49 -5 55 -4 30 4 -45 13 -41
18 10 12 51 -7 84 -22 48 -23 -13 0 -22 -2 -20 -4 5 -5 430 -96 444 -96 6 1
-3 7 -20 16 l-30 14 45 -5 c51 -7 78 -24 40 -26 -17 -1 -12 -4 16 -10 l41 -10
6 -92 c4 -51 10 -102 13 -113 l6 -22 -104 19 c-126 23 -140 23 -115 5 13 -10
15 -15 5 -19 -18 -6 55 -25 124 -32 52 -6 57 -8 60 -33 2 -16 10 -28 21 -30
13 -3 17 3 17 27 0 16 5 33 10 36 6 3 10 2 10 -4 0 -14 67 -35 120 -37 25 -1
67 -5 94 -9 70 -11 52 9 -32 35 -102 30 -103 36 -11 44 46 4 86 10 89 14 3 5
20 14 37 21 33 14 37 32 5 26 -146 -30 -245 -45 -261 -40 -15 4 -21 2 -21 -9
0 -8 9 -18 21 -21 11 -4 18 -9 15 -12 -7 -8 -66 17 -66 28 0 4 5 11 10 14 6 4
10 55 10 121 0 83 3 116 13 119 21 7 187 10 187 4 0 -4 -29 -10 -65 -14 -36
-3 -65 -11 -65 -16 0 -4 14 -6 30 -2 35 7 40 -4 8 -17 -18 -7 -13 -9 27 -9 66
0 108 17 50 19 -39 2 -39 3 -10 10 17 4 52 8 78 9 30 1 46 5 42 11 -4 6 -21 8
-41 4 -22 -4 -34 -2 -34 5 0 6 18 11 43 11 23 0 54 7 70 14 15 8 73 20 128 27
56 6 113 15 128 19 26 8 26 8 -6 9 -17 1 -33 7 -35 13 -5 13 -70 14 -142 2
-23 -4 -36 -2 -33 3 4 5 25 10 49 11 23 1 47 7 53 13 11 11 -53 8 -285 -16
-112 -12 -126 -12 -137 3 -16 20 -8 29 12 12 19 -16 19 -3 0 30 -23 39 -17 48
10 15 16 -20 25 -25 25 -14 0 8 -5 20 -12 27 -6 6 -8 15 -4 19 4 5 13 0 20
-10 17 -22 29 -22 22 1 -5 15 0 18 31 19 21 1 41 -4 45 -10 6 -9 8 -9 8 1 0 6
5 12 10 12 6 0 10 -7 10 -15 0 -8 4 -15 10 -15 5 0 7 7 4 15 -5 12 4 15 45 15
28 0 51 5 51 10 0 6 -17 10 -38 10 -31 0 -41 5 -50 24 -6 13 -8 27 -5 30 4 3
31 6 61 6 31 0 52 3 48 7 -3 4 -25 6 -48 4 -62 -3 -98 7 -98 30 0 10 -7 19
-15 19 -8 0 -15 5 -15 10 0 6 40 10 99 10 75 0 101 -4 111 -15 10 -12 38 -15
134 -15 l122 0 3 -167 c2 -93 6 -215 10 -273 l6 -105 40 -7 c51 -9 150 0 194
18 30 12 36 12 51 -1 21 -19 40 -19 40 -2 0 8 18 19 41 26 l41 12 -23 25 c-23
24 -24 33 -32 275 -5 137 -7 252 -5 255 3 2 23 5 44 6 21 0 45 5 51 11 16 11
50 0 37 -12 -5 -5 -20 -11 -34 -14 -14 -2 5 -5 43 -6 39 0 67 -5 67 -12 0 -5
-4 -8 -9 -4 -5 3 -12 1 -16 -5 -3 -5 -19 -10 -35 -10 -32 0 -86 -18 -78 -26 3
-2 25 -8 49 -13 l44 -9 -41 -1 c-30 -1 -41 -5 -41 -17 0 -13 11 -15 60 -12
l60 3 14 -54 c7 -30 18 -60 24 -67 6 -8 10 -53 8 -111 -1 -55 1 -104 5 -111 4
-7 17 -12 30 -12 12 0 26 -4 32 -10 15 -15 110 -31 222 -35 85 -4 102 -2 102
10 0 10 10 15 29 15 36 0 51 19 22 27 -14 4 -18 9 -12 17 5 6 11 20 14 31 4
18 5 18 6 -2 0 -13 6 -23 12 -23 8 0 10 15 5 46 -3 26 -6 55 -6 65 0 11 -4 19
-10 19 -5 0 -10 -7 -10 -15 0 -8 -4 -15 -10 -15 -5 0 -10 11 -10 23 0 39 -28
84 -65 106 -38 22 -41 34 -20 71 19 34 18 47 -3 53 -11 2 -21 14 -25 26 -4 17
-1 21 16 21 20 1 21 2 5 14 -24 18 -23 26 5 27 21 1 21 1 -3 8 -22 6 -25 13
-28 64 -3 55 -2 57 23 57 14 0 25 5 25 10 0 6 -11 10 -25 10 -14 0 -25 5 -25
10 0 6 19 10 43 10 31 0 38 3 27 10 -8 5 -28 10 -43 10 -26 0 -28 3 -25 33 3
29 6 32 36 29 17 -1 32 2 32 8 0 5 -13 10 -29 10 -17 0 -33 5 -36 10 -4 6 13
10 42 11 47 1 48 1 18 12 l-30 12 45 6 45 6 -57 1 c-31 1 -60 7 -64 13 -5 9 9
10 50 5 37 -5 56 -4 56 3 0 6 -12 11 -27 11 -16 0 -35 4 -43 10 -13 8 -13 10
0 14 8 3 28 6 44 8 50 5 44 28 -8 28 -24 0 -48 5 -51 10 -4 6 11 10 37 11 l43
0 -50 24 c-50 24 -51 29 -7 25 12 -1 22 3 22 9 0 6 -11 11 -25 11 -17 0 -25 5
-25 18 0 10 -4 22 -10 28 -7 7 2 9 25 6 19 -2 35 -8 35 -14 0 -5 4 -7 9 -4 4
3 6 39 3 81 l-5 75 29 0 c37 0 182 -25 209 -35 11 -5 26 -13 34 -19 7 -5 43
-23 79 -38 59 -25 68 -26 82 -13 20 18 63 18 110 0 28 -11 30 -14 13 -14 -13
-1 -23 -5 -23 -11 0 -5 -6 -10 -14 -10 -26 0 -31 -95 -6 -110 6 -4 15 -20 20
-36 l8 -29 1 27 c1 15 6 30 11 33 6 3 8 16 6 28 -3 12 -7 34 -10 48 -5 24 -1
29 34 43 22 9 49 16 59 16 11 0 21 5 23 11 3 8 51 5 163 -10 591 -78 898 -121
903 -126 10 -10 15 -436 6 -434 -35 6 -47 -15 -14 -24 11 -3 20 -10 20 -17 0
-6 -6 -10 -12 -8 -7 3 -17 -4 -23 -15 -10 -20 -29 -25 -31 -7 -3 21 -4 22 -19
10 -21 -17 -19 -29 7 -39 14 -5 31 -3 47 5 17 9 27 10 30 3 5 -15 -2 -19 -43
-26 -29 -4 -44 -1 -67 16 -16 12 -29 17 -29 11 0 -5 6 -10 13 -10 9 0 9 -2 -1
-9 -11 -6 -12 -26 -7 -87 4 -43 7 -83 7 -89 -1 -16 -31 -18 -63 -5 -28 12 -41
40 -18 40 7 0 9 30 4 100 l-7 100 30 0 c17 0 34 -5 38 -11 5 -8 10 -6 16 5 5
9 16 16 23 16 8 0 15 5 15 10 0 6 7 10 15 10 8 0 15 4 15 8 0 13 -47 32 -76
32 l-25 0 24 33 c21 26 25 44 26 105 1 43 -3 72 -9 72 -5 0 -10 5 -10 11 0 5
5 7 10 4 12 -7 19 8 24 53 4 40 -3 44 -124 62 -47 7 -92 19 -100 26 -12 10
-54 13 -169 11 l-153 -2 -50 -90 c-27 -49 -56 -94 -64 -98 -19 -11 -18 -27 2
-27 15 0 16 -16 12 -155 -3 -86 -2 -158 3 -161 16 -9 10 -34 -6 -28 -8 4 -15
1 -15 -6 0 -10 -3 -10 -15 0 -8 7 -15 16 -15 21 0 5 7 9 15 9 8 0 15 5 15 10
0 6 -6 10 -13 10 -26 0 -37 -25 -37 -88 0 -40 -4 -61 -10 -57 -6 3 -13 -1 -16
-9 -4 -11 -19 -16 -49 -16 -36 0 -44 4 -48 22 -8 29 -6 30 27 13 24 -13 30
-13 52 2 18 11 24 23 22 42 -3 24 -7 26 -62 29 l-59 3 31 19 c45 27 61 94 67
271 5 155 7 175 18 185 4 4 7 45 7 91 0 60 -3 83 -13 83 -6 0 -70 7 -141 15
-71 8 -131 13 -134 11 -5 -6 -4 -45 3 -166 3 -47 8 -180 11 -297 l5 -212 -28
-6 c-48 -11 -53 -14 -47 -30 3 -8 1 -15 -5 -15 -5 0 -15 -9 -21 -20 -12 -23 2
-99 21 -110 16 -11 -10 -17 -98 -26 -61 -5 -73 -4 -73 8 0 9 6 21 13 27 14 11
11 67 -4 77 -16 10 -9 22 16 28 14 4 25 13 25 21 0 12 -19 15 -97 17 -54 0
-122 0 -150 -1 -29 -2 -54 -1 -55 1 -1 1 -5 173 -8 381 l-5 377 38 0 c22 0 86
-12 143 -27 l104 -28 1 -80 c1 -44 5 -192 9 -330 l7 -250 1 250 c1 138 2 256
2 263 0 7 5 10 10 7 7 -5 10 24 8 86 l-3 93 -160 38 c-88 21 -169 38 -181 38
-19 0 -22 -7 -27 -77 -4 -58 -2 -86 9 -107 11 -24 12 -31 2 -38 -10 -6 -10 -8
0 -8 7 0 12 -13 12 -33 0 -18 -6 -39 -12 -46 -10 -11 -10 -14 0 -18 16 -6 18
-383 1 -383 -8 0 -8 -4 -1 -12 5 -7 13 -37 17 -65 7 -52 8 -53 40 -53 62 0 97
-11 90 -29 -13 -31 -15 -61 -5 -61 5 0 10 9 10 19 0 11 3 22 8 24 4 3 7 -25 7
-61 -1 -42 -5 -67 -13 -70 -21 -7 -13 -22 11 -22 13 0 27 -3 31 -7 12 -12 75
-10 80 2 6 16 53 24 201 35 151 12 213 22 245 40 14 8 36 13 50 12 20 -2 22
-1 10 7 -8 6 -30 8 -47 5 -26 -5 -33 -3 -33 10 0 10 9 16 23 16 12 0 38 3 58
6 30 5 37 3 41 -13 3 -12 17 -22 34 -26 16 -3 34 -14 41 -25 10 -17 9 -20 -15
-20 -15 0 -31 5 -35 12 -6 8 -10 8 -14 -1 -2 -7 -10 -13 -16 -13 -7 0 -30 -9
-52 -21 -27 -15 -50 -20 -76 -16 -20 3 -41 1 -46 -4 -15 -15 -214 -42 -226
-30 -16 16 -37 13 -31 -4 5 -11 -1 -15 -20 -15 -15 0 -57 -7 -94 -15 -37 -8
-96 -17 -132 -19 -36 -1 -76 -9 -89 -15 -12 -7 -37 -11 -54 -10 -33 2 -68 -8
-77 -22 -3 -5 -57 -10 -120 -13 -157 -6 -261 -18 -593 -71 -87 -14 -162 -23
-167 -20 -5 3 -17 1 -27 -4 -10 -6 -43 -13 -73 -16 l-55 -6 0 -59 c0 -46 3
-60 15 -61 8 -1 22 -2 30 -3 8 0 17 2 20 5 3 4 23 9 45 10 22 2 43 8 47 13 4
6 35 11 70 13 101 5 122 9 126 21 2 7 10 12 18 12 8 0 14 9 14 20 0 11 5 20
10 20 6 0 10 -12 10 -27 1 -27 1 -27 15 -9 11 14 15 16 15 5 0 -11 2 -12 9 0
6 9 18 11 40 6 17 -4 31 -3 31 2 0 9 76 11 85 1 4 -4 23 3 43 14 28 16 40 18
54 9 23 -14 28 -14 28 3 0 16 37 28 46 15 7 -13 44 -11 44 2 0 6 9 8 20 4 11
-3 20 -3 20 2 0 9 34 14 95 13 22 0 56 7 75 16 24 12 35 13 38 5 2 -6 17 -11
33 -11 21 0 27 4 23 15 -7 17 11 21 21 5 4 -6 12 -7 18 -3 24 16 122 31 134
21 9 -7 17 -5 27 4 8 8 36 16 62 16 26 1 51 7 54 12 4 6 15 12 26 14 10 2 38
9 60 15 23 6 74 13 113 16 40 2 78 8 84 12 20 12 46 13 52 2 5 -7 11 -7 20 1
9 7 16 6 25 -5 11 -13 15 -14 29 -1 9 8 38 17 66 21 27 3 54 10 60 14 20 15
144 43 202 45 33 2 65 6 72 10 7 5 39 9 71 11 43 2 63 8 79 24 25 25 35 26 55
6 16 -17 30 -20 21 -6 -3 5 5 13 17 17 13 4 26 11 30 17 4 6 49 10 115 9 103
-1 224 11 247 26 6 3 16 7 21 7 24 1 163 27 190 36 17 5 48 11 70 14 22 3 49
10 60 15 11 5 41 11 67 15 26 3 50 10 53 16 4 5 10 7 15 4 4 -3 25 1 46 9 22
7 45 11 52 9 7 -3 19 0 27 7 8 6 19 9 24 6 6 -4 18 -2 28 3 10 6 61 19 113 30
52 11 124 27 160 36 36 9 128 29 205 45 77 16 172 36 210 46 39 9 79 18 90 18
11 1 46 8 79 15 61 13 161 8 183 -11 13 -10 121 -13 131 -4 3 3 -18 6 -46 6
-37 0 -52 4 -52 14 0 9 -19 15 -61 19 -35 3 -65 11 -70 19 -12 18 -11 140 1
158 8 12 10 9 10 -12 0 -16 5 -28 10 -28 6 0 10 -5 10 -11 0 -5 -5 -7 -11 -4
-7 5 -9 -11 -7 -47 l3 -53 36 -3 c25 -2 38 2 42 12 4 9 2 18 -3 21 -6 4 -10
19 -10 35 0 17 -11 40 -29 59 -17 18 -28 37 -26 44 2 7 -20 38 -49 70 l-54 57
-133 31 c-73 16 -169 40 -214 54 -44 13 -138 35 -210 50 -71 15 -156 33 -188
41 -32 8 -66 14 -75 12 -9 -1 -26 3 -37 9 -12 6 -58 21 -102 32 -98 25 -416
124 -602 187 -74 25 -143 43 -154 40 -24 -6 -108 21 -123 39 -9 12 -246 79
-723 205 -68 18 -109 34 -117 46 -7 11 -18 24 -23 30 -5 7 -49 12 -108 13 -54
1 -115 6 -135 12 l-38 10 0 92 c-1 83 -2 90 -15 73 -10 -14 -13 -32 -8 -59 5
-36 4 -40 -11 -34 -10 4 -21 7 -24 8 -4 0 2 4 13 9 15 6 4 9 -40 11 -33 1 -48
4 -32 6 15 2 27 9 27 14 0 5 9 9 19 9 11 0 23 5 26 10 3 6 -1 10 -9 10 -11 0
-16 13 -18 48 -3 45 -4 47 -33 47 -29 0 -30 -2 -35 -55 -3 -30 -8 -54 -12 -52
-5 1 -24 2 -43 2 -30 0 -35 -3 -35 -23 0 -22 -1 -22 -92 -15 -51 3 -136 18
-188 33 -60 16 -96 22 -98 15 -5 -13 -79 -13 -87 0 -3 6 4 14 16 18 l23 9 -22
5 c-14 4 -25 1 -31 -9 -6 -12 -17 -14 -45 -9 -34 7 -42 26 -10 26 8 0 14 4 14
8 0 5 -39 17 -86 27 l-86 18 4 80 3 80 -39 13 c-22 8 -42 10 -45 5 -3 -4 -15
-5 -25 -1 -14 4 -16 9 -8 14 13 7 16 83 6 110 -7 19 -50 21 -61 4z m72 -178
c3 -5 1 -10 -4 -10 -6 0 -11 5 -11 10 0 6 2 10 4 10 3 0 8 -4 11 -10z m22 -36
c26 -7 51 -64 27 -64 -7 0 -14 9 -14 20 0 11 -4 20 -10 20 -5 0 -10 -7 -10
-15 0 -18 -20 -20 -21 -2 0 6 -2 20 -4 30 -4 19 -1 20 32 11z m-50 -32 c-3
-16 -2 -45 3 -66 7 -31 6 -35 -6 -25 -11 9 -14 7 -14 -10 0 -11 5 -21 10 -21
14 0 12 -74 -2 -88 -9 -9 -9 -12 1 -12 9 0 12 -23 12 -82 0 -46 1 -114 2 -153
1 -38 -1 -78 -3 -89 -4 -15 2 -18 33 -20 20 -2 40 -5 43 -8 2 -3 3 -50 2 -104
-3 -96 -3 -97 -22 -78 -11 10 -24 19 -30 19 -6 0 -12 22 -14 48 -3 39 -6 46
-17 37 -10 -8 -17 -6 -30 7 -11 11 -14 18 -6 21 20 7 12 20 -9 15 -15 -4 -20
0 -20 15 0 11 -6 23 -12 25 -7 3 -2 6 12 6 14 1 32 6 40 11 11 7 7 10 -17 10
-18 0 -33 5 -33 10 0 6 14 10 30 10 17 0 30 5 30 10 0 6 -4 10 -10 10 -5 0
-10 9 -10 20 0 11 5 20 10 20 6 0 10 4 10 9 0 5 -18 7 -40 4 -32 -4 -40 -2
-40 10 0 17 20 27 58 27 26 1 26 1 7 16 -19 15 -19 16 -2 29 25 18 7 26 -34
15 -55 -16 -71 -13 -67 12 2 19 12 24 57 31 l54 9 -29 24 c-21 17 -24 23 -13
24 22 0 44 26 29 35 -15 9 -12 25 5 25 8 0 15 5 15 10 0 6 -18 10 -40 10 -47
0 -53 16 -10 25 43 9 47 25 5 18 -44 -7 -48 14 -5 30 37 14 39 27 5 27 -22 0
-24 2 -13 14 9 10 15 10 20 3 9 -15 22 -1 15 16 -4 11 -17 13 -51 10 -32 -4
-46 -2 -46 6 0 7 3 10 8 7 4 -2 32 6 62 20 70 30 74 30 67 -4z m88 -50 c17
-12 12 -34 -10 -42 -19 -7 -19 -7 3 -14 27 -9 31 -62 6 -81 -19 -14 -11 -55
11 -55 8 0 32 -27 54 -59 22 -33 44 -61 49 -63 4 -1 35 -39 68 -82 86 -115
103 -140 103 -153 1 -7 8 -16 17 -21 9 -5 15 -14 13 -20 -2 -6 -71 80 -154
190 -139 188 -150 199 -158 175 -7 -23 -11 -25 -38 -15 -25 8 -29 15 -29 45 0
27 3 34 15 29 8 -3 15 -1 15 4 0 6 -7 10 -15 10 -10 0 -15 11 -15 35 0 24 5
35 15 35 8 0 15 5 15 10 0 6 -7 10 -15 10 -10 0 -15 11 -15 35 0 32 3 35 28
35 15 0 32 -4 37 -8z m70 -52 c18 -8 17 -9 -7 -9 -16 -1 -28 4 -28 9 0 12 8
12 35 0z m-267 -22 c-6 -18 -28 -21 -28 -4 0 9 7 16 16 16 9 0 14 -5 12 -12z
m625 -49 c22 -6 37 -13 34 -15 -9 -9 -97 8 -91 17 7 11 11 11 57 -2z m-573
-34 c0 -9 -12 -20 -26 -25 -38 -15 -56 -12 -52 7 3 15 24 24 71 32 4 0 7 -6 7
-14z m285 5 c3 -5 1 -10 -4 -10 -6 0 -11 5 -11 10 0 6 2 10 4 10 3 0 8 -4 11
-10z m35 -11 c0 -6 -4 -7 -10 -4 -5 3 -10 11 -10 16 0 6 5 7 10 4 6 -3 10 -11
10 -16z m31 8 c-1 -12 -15 -9 -19 4 -3 6 1 10 8 8 6 -3 11 -8 11 -12z m49 -7
c0 -5 -2 -10 -4 -10 -3 0 -8 5 -11 10 -3 6 -1 10 4 10 6 0 11 -4 11 -10z m433
-6 c13 -14 -3 -20 -42 -16 -23 2 -38 8 -35 13 6 10 67 12 77 3z m-13 -29 c0
-2 -12 -29 -27 -60 -20 -41 -32 -55 -48 -54 -11 0 -14 3 -7 6 23 9 1 23 -38
23 -21 0 -41 4 -45 9 -9 16 38 41 78 41 23 0 36 4 32 10 -3 6 -21 10 -38 10
-18 0 -39 5 -47 10 -10 7 9 10 63 10 42 0 77 -2 77 -5z m-415 -15 c8 -13 -5
-13 -25 0 -13 8 -13 10 2 10 9 0 20 -4 23 -10z m51 -17 c-7 -7 -26 7 -26 19 0
6 6 6 15 -2 9 -7 13 -15 11 -17z m122 10 c-27 -55 -33 -63 -54 -63 -12 0 -24
7 -28 15 -4 10 1 15 14 15 14 0 18 5 13 17 -5 12 -2 15 10 10 9 -3 19 -2 22 3
7 12 28 14 23 3z m371 -9 c13 -12 -8 -10 -29 2 l-25 15 25 -7 c14 -3 27 -8 29
-10z m-609 -14 c8 -5 12 -12 9 -15 -8 -8 -39 5 -39 16 0 11 11 11 30 -1z m45
-10 c3 -5 2 -10 -4 -10 -5 0 -13 5 -16 10 -3 6 -2 10 4 10 5 0 13 -4 16 -10z
m437 -12 c-7 -7 -12 -8 -12 -2 0 6 3 14 7 17 3 4 9 5 12 2 2 -3 -1 -11 -7 -17z
m253 -1 c7 -6 0 -7 -20 -3 -16 4 -34 12 -40 17 -7 7 0 8 20 3 17 -3 35 -11 40
-17z m-957 7 c21 -6 22 -10 22 -130 l0 -123 -30 10 c-30 11 -30 12 -30 86 0
43 4 72 9 68 5 -3 12 -1 16 5 3 5 -1 10 -9 10 -12 0 -16 10 -16 40 0 42 1 43
38 34z m357 -17 c7 -6 0 -7 -20 -3 -16 4 -34 12 -40 17 -7 7 0 8 20 3 17 -3
35 -11 40 -17z m445 -8 c0 -6 -4 -7 -10 -4 -5 3 -10 11 -10 16 0 6 5 7 10 4 6
-3 10 -11 10 -16z m91 2 c35 -11 79 -22 97 -26 39 -8 40 -19 7 -67 -17 -25
-21 -39 -14 -44 8 -5 10 -35 6 -97 -8 -117 -3 -127 69 -127 35 0 67 6 85 17
27 16 29 22 29 75 0 32 4 58 10 58 6 0 10 -30 10 -70 0 -70 0 -70 28 -70 33 0
59 -15 43 -24 -6 -4 -15 -4 -21 -1 -5 3 -15 3 -22 -1 -8 -5 -2 -11 17 -16 18
-4 31 -4 33 2 2 6 12 10 23 10 10 0 19 7 19 15 0 8 -5 15 -11 15 -5 0 -7 5 -4
10 10 17 25 11 25 -10 0 -11 4 -20 10 -20 6 0 8 40 4 109 -4 61 -4 117 -1 125
7 17 12 15 517 -123 468 -128 672 -190 665 -201 -2 -4 7 -12 20 -18 34 -16 31
-29 -4 -24 -17 2 -39 -3 -51 -11 -12 -9 -29 -13 -36 -10 -32 12 -9 -15 51 -62
36 -27 65 -53 65 -58 0 -12 65 -37 97 -38 15 0 23 -3 16 -5 -18 -8 -621 80
-1043 152 -212 36 -452 76 -535 89 -82 13 -212 33 -288 45 -75 12 -143 20
-150 17 -15 -5 -57 2 578 -103 286 -48 536 -90 555 -94 143 -31 -300 34 -760
110 -102 17 -203 33 -225 34 -22 2 -85 11 -140 20 -55 9 -133 21 -172 27 -40
6 -73 15 -73 21 0 6 16 8 38 4 20 -3 63 -8 95 -11 l58 -7 -26 26 c-14 15 -23
31 -20 36 3 6 0 10 -7 11 -7 0 -2 6 12 12 46 22 59 43 61 101 1 31 6 56 11 56
5 0 8 -28 7 -62 -2 -76 2 -91 21 -100 23 -10 62 -9 55 2 -9 15 12 12 28 -4 9
-9 19 -11 28 -5 8 5 21 6 30 4 14 -5 15 12 13 141 -2 80 -6 154 -9 165 -8 24
-2 24 76 0z m139 -1 c12 -8 12 -10 -5 -10 -11 0 -27 5 -35 10 -12 8 -12 10 5
10 11 0 27 -5 35 -10z m-2497 -32 c2 -13 8 -32 13 -43 7 -17 6 -18 -8 -7 -10
8 -19 9 -22 3 -3 -5 -29 -74 -56 -152 -28 -79 -66 -180 -85 -224 -19 -44 -57
-140 -85 -214 -27 -74 -57 -142 -65 -151 -8 -9 -15 -21 -15 -26 0 -5 -9 -20
-20 -34 -15 -19 -20 -21 -20 -9 0 25 39 146 67 208 14 30 36 83 49 118 13 35
28 71 34 80 5 10 36 90 68 178 70 188 117 295 130 295 5 0 12 -10 15 -22z
m1586 -23 l32 -45 -30 0 c-32 0 -41 16 -19 38 9 9 7 12 -10 12 -21 0 -30 19
-15 33 9 9 6 12 42 -38z m1091 -15 c-17 -34 -37 -60 -46 -60 -8 0 -13 4 -10 9
7 10 -17 21 -45 21 -46 0 -8 40 41 41 27 1 29 3 10 6 -50 9 -44 23 11 24 42 1
48 3 29 9 -24 8 -23 8 8 9 l32 1 -30 -60z m-802 33 c6 -6 12 -33 12 -58 l0
-47 -75 4 c-54 2 -80 8 -92 21 -16 16 -15 17 27 17 33 0 41 3 30 10 -8 5 -31
10 -50 10 -33 0 -60 14 -60 31 0 3 19 3 43 -1 90 -16 149 -21 143 -12 -3 5
-30 13 -61 17 -30 3 -57 10 -60 15 -8 13 128 7 143 -7z m402 -1 c0 -4 -21 -6
-47 -4 -76 5 -83 10 -15 11 34 0 62 -2 62 -7z m-2000 -21 c19 -4 33 -11 30
-16 -5 -10 -54 -9 -80 2 -8 3 -30 5 -47 4 -31 -2 -42 7 -26 22 6 6 49 2 123
-12z m85 -21 c-3 -5 -10 -10 -16 -10 -5 0 -9 5 -9 10 0 6 7 10 16 10 8 0 12
-4 9 -10z m104 -16 c3 -2 0 -8 -5 -13 -5 -5 -26 0 -49 11 l-40 19 45 -6 c24
-3 46 -8 49 -11z m2441 -15 c0 -5 -6 -7 -12 -5 -7 3 -25 7 -40 10 -16 4 -28
10 -28 15 0 5 18 4 40 -1 22 -6 40 -14 40 -19z m-1617 1 c3 -11 1 -18 -4 -14
-5 3 -9 12 -9 20 0 20 7 17 13 -6z m-743 -44 c157 -24 329 -50 384 -57 62 -8
100 -18 103 -26 3 -8 22 -13 49 -13 41 0 44 -2 44 -27 0 -25 -1 -26 -20 -8
-17 16 -21 16 -35 2 -20 -21 -19 -27 4 -27 29 0 34 -17 8 -25 -20 -7 -20 -8 8
-12 28 -4 55 -26 55 -45 0 -4 -13 -8 -30 -8 -44 0 -37 -20 8 -21 39 -1 104
-15 87 -19 -16 -3 -123 1 -150 6 -13 2 -27 0 -30 -6 -4 -6 16 -10 52 -11 83
-1 146 -12 151 -26 2 -8 -6 -13 -20 -14 -33 -1 -12 -6 55 -14 31 -4 57 -11 57
-16 0 -7 -46 -8 -132 -3 -98 5 -129 4 -124 -5 5 -7 42 -11 106 -11 107 0 155
-9 110 -21 l-25 -6 30 -7 c62 -15 84 -28 97 -59 7 -18 13 -36 13 -42 0 -13 41
-23 98 -24 26 -1 47 -5 47 -11 0 -5 5 -10 10 -10 6 0 10 7 10 15 0 26 14 16
38 -25 24 -43 23 -45 -28 -53 -14 -2 -4 -5 21 -6 42 -1 48 -5 77 -45 18 -24
32 -47 32 -50 0 -3 -24 -6 -54 -6 -30 0 -58 -4 -61 -10 -4 -6 20 -10 64 -10
38 0 73 -4 76 -10 4 -6 -8 -10 -29 -10 -20 0 -36 -4 -36 -9 0 -4 14 -7 30 -5
17 2 30 -1 30 -6 0 -6 -24 -10 -52 -11 l-53 -1 40 -12 40 -12 -70 -7 c-38 -4
-230 -5 -425 -3 -217 3 -316 1 -255 -4 55 -4 220 -8 366 -9 295 -1 457 -10
437 -22 -7 -5 -112 -7 -233 -4 -121 3 -336 5 -478 5 -203 0 -258 3 -254 13 2
6 10 13 18 13 8 1 19 2 26 3 7 0 10 7 7 14 -3 10 -54 12 -234 9 l-229 -4 -11
43 c-6 24 -20 75 -30 114 -10 38 -16 73 -13 78 2 4 -5 40 -17 78 -12 39 -19
73 -16 76 3 3 -1 15 -9 27 -29 40 -21 46 71 46 54 0 83 4 79 10 -3 6 -43 10
-88 10 l-82 1 -23 46 -23 46 47 -7 c61 -8 51 2 -17 17 -29 7 -54 18 -57 25 -3
9 25 12 118 12 128 0 154 13 47 24 -68 8 -113 26 -64 26 18 0 27 5 27 16 0 14
8 16 58 10 155 -18 175 -19 168 -8 -4 7 -28 12 -54 13 -58 1 -94 11 -99 26 -5
13 42 12 132 -2 79 -12 41 10 -42 24 -93 16 -111 37 -24 27 40 -5 61 -4 57 2
-3 6 -33 13 -65 17 -41 5 -61 12 -66 23 -5 14 -7 14 -16 2 -8 -12 -12 -12 -16
-2 -4 10 -8 10 -19 1 -11 -9 -19 -8 -34 6 -11 10 -20 13 -20 7 0 -15 -50 -8
-61 9 -17 28 -10 41 19 35 15 -3 155 -26 312 -50z m33 43 c75 -11 114 -29 62
-29 -33 1 -144 25 -153 34 -8 8 10 7 91 -5z m640 -4 c-3 -9 -8 -14 -10 -11 -3
3 -2 9 2 15 9 16 15 13 8 -4z m386 -11 c9 -9 -5 -12 -31 -7 -16 3 -28 10 -28
15 0 9 49 3 59 -8z m60 -31 l33 -43 -31 0 c-20 0 -31 5 -31 14 0 9 -8 12 -25
8 -15 -2 -25 0 -25 7 0 6 9 11 20 11 15 0 20 7 20 27 0 14 1 24 3 22 2 -2 18
-23 36 -46z m608 25 c-3 -8 -6 -5 -6 6 -1 11 2 17 5 13 3 -3 4 -12 1 -19z
m-2229 -13 c-3 -3 -9 2 -12 12 -6 14 -5 15 5 6 7 -7 10 -15 7 -18z m152 15 c0
-5 -2 -10 -4 -10 -3 0 -8 5 -11 10 -3 6 -1 10 4 10 6 0 11 -4 11 -10z m1029
-29 c-16 -35 -29 -43 -50 -30 -12 7 -11 11 4 26 17 17 18 17 11 -2 -7 -18 -6
-18 9 -7 9 8 19 23 23 34 3 11 8 17 11 14 3 -3 -1 -19 -8 -35z m817 24 c-3 -9
3 -24 14 -35 12 -12 20 -33 20 -53 0 -32 -1 -32 -40 -29 -38 4 -53 16 -29 24
6 2 14 27 17 56 2 29 9 52 14 52 6 0 8 -7 4 -15z m980 -6 c3 -5 1 -9 -5 -9
-17 0 -41 12 -41 20 0 10 38 1 46 -11z m-2301 1 c3 -5 -1 -10 -9 -10 -8 0 -18
5 -21 10 -3 6 1 10 9 10 8 0 18 -4 21 -10z m625 -10 c0 -23 -13 -26 -29 -6 -9
11 -9 15 1 19 23 10 28 7 28 -13z m-532 0 c12 0 22 -5 22 -11 0 -13 -71 -3
-85 13 -7 8 -3 9 15 4 14 -3 35 -6 48 -6z m1071 -16 c1 -1 0 -7 -4 -13 -13
-23 -135 -4 -135 21 0 8 128 2 139 -8z m-904 -15 c36 -14 -46 -9 -90 6 l-40
14 55 -6 c30 -3 64 -9 75 -14z m1726 12 c-8 -5 -20 -7 -28 -4 -21 8 -15 13 15
13 20 0 23 -3 13 -9z m447 -6 c14 -14 -10 -14 -39 0 l-34 15 34 -5 c19 -3 37
-7 39 -10z m-2857 -15 c3 -20 4 -25 12 -37 5 -8 4 -13 -2 -13 -11 0 -31 32
-31 49 0 14 20 14 21 1z m49 -12 c0 -13 -23 -5 -28 10 -2 7 2 10 12 6 9 -3 16
-11 16 -16z m753 6 c20 -4 37 -11 37 -16 0 -6 -10 -7 -22 -3 -13 4 -39 10 -58
15 -42 9 -10 12 43 4z m2172 -9 c31 -10 34 -13 15 -13 -14 0 -43 5 -65 13 -31
10 -34 13 -15 13 14 0 43 -5 65 -13z m-1386 -11 c3 -3 -1 -10 -7 -16 -15 -15
-83 1 -90 20 -3 11 6 12 44 6 27 -3 51 -8 53 -10z m717 -31 c8 -3 14 -19 14
-40 0 -32 -2 -35 -22 -29 -13 3 -26 6 -30 6 -4 0 -3 12 2 26 6 14 11 40 11 57
1 25 3 27 6 9 3 -13 11 -26 19 -29z m-1371 27 c28 -7 28 -8 -12 -9 -23 0 -45
4 -48 9 -7 11 16 11 60 0z m429 -22 c-3 -5 -12 -4 -20 3 -7 6 -11 15 -8 21 3
5 12 4 20 -3 7 -6 11 -15 8 -21z m616 -3 c0 -38 -10 -44 -35 -19 -15 15 -15
18 1 35 25 28 34 23 34 -16z m-545 -1 c9 -14 34 -43 55 -64 36 -36 38 -41 27
-69 -11 -30 -47 -40 -47 -13 0 11 -3 12 -13 4 -8 -7 -29 -9 -50 -5 -31 5 -35
8 -25 20 9 11 24 14 55 9 23 -3 45 -1 48 4 4 6 -23 10 -69 10 -60 0 -76 3 -76
15 0 9 -14 16 -37 20 -75 12 -66 14 47 10 70 -2 103 0 85 4 -16 5 -45 9 -62
10 -23 1 -33 6 -33 17 0 13 8 14 46 8 34 -5 45 -4 40 5 -4 6 -16 11 -27 11
-10 0 -19 7 -19 15 0 24 36 17 55 -11z m1635 16 c12 -8 11 -10 -7 -10 -13 0
-23 5 -23 10 0 13 11 13 30 0z m-3000 -4 c0 -2 3 -11 6 -20 4 -11 1 -16 -10
-16 -9 0 -16 2 -16 4 0 2 -3 11 -6 20 -4 11 -1 16 10 16 9 0 16 -2 16 -4z
m1784 -21 c3 -8 1 -15 -3 -15 -5 0 -11 7 -15 15 -3 8 -1 15 3 15 5 0 11 -7 15
-15z m-1824 1 c0 -3 -4 -8 -10 -11 -5 -3 -10 -1 -10 4 0 6 5 11 10 11 6 0 10
-2 10 -4z m1549 -5 c7 -5 12 -13 10 -18 -5 -12 -69 4 -69 17 0 12 40 13 59 1z
m-1649 -11 c0 -5 -4 -10 -10 -10 -5 0 -10 5 -10 10 0 6 5 10 10 10 6 0 10 -4
10 -10z m1383 3 c-7 -2 -21 -2 -30 0 -10 3 -4 5 12 5 17 0 24 -2 18 -5z m362
-3 c3 -5 2 -10 -4 -10 -5 0 -13 5 -16 10 -3 6 -2 10 4 10 5 0 13 -4 16 -10z
m1512 4 c-3 -3 -12 -4 -19 -1 -8 3 -5 6 6 6 11 1 17 -2 13 -5z m-3187 -14 c0
-5 -4 -10 -10 -10 -5 0 -10 5 -10 10 0 6 5 10 10 10 6 0 10 -4 10 -10z m3237
4 c-3 -3 -12 -4 -19 -1 -8 3 -5 6 6 6 11 1 17 -2 13 -5z m-3287 -34 c0 -5 -4
-10 -9 -10 -6 0 -13 5 -16 10 -3 6 1 10 9 10 9 0 16 -4 16 -10z m1683 3 c9 -8
-24 -32 -45 -33 -10 0 -18 2 -18 4 0 2 -3 11 -6 20 -5 13 1 16 28 16 19 0 38
-3 41 -7z m757 -26 c0 -5 -4 -5 -10 -2 -5 3 -10 14 -10 23 0 15 2 15 10 2 5
-8 10 -19 10 -23z m-1535 13 c3 -5 -1 -10 -9 -10 -9 0 -16 5 -16 10 0 6 4 10
9 10 6 0 13 -4 16 -10z m861 -6 c18 -15 17 -15 -16 -10 -43 8 -64 26 -29 26
14 0 34 -7 45 -16z m714 -4 c0 -5 -4 -10 -10 -10 -5 0 -10 5 -10 10 0 6 5 10
10 10 6 0 10 -4 10 -10z m-1547 -46 c11 -14 16 -28 12 -32 -7 -7 -45 34 -45
49 0 16 15 9 33 -17z m2660 9 c9 -3 17 -9 17 -14 0 -11 -58 10 -67 24 -4 7 0
8 13 3 10 -5 27 -11 37 -13z m-2610 -30 c-3 -7 -6 -13 -8 -13 -2 0 -5 6 -8 13
-3 8 1 14 8 14 7 0 11 -6 8 -14z m654 -26 c24 -24 44 -55 47 -72 15 -84 25
-262 25 -455 1 -118 4 -268 7 -333 l6 -118 -21 13 c-12 7 -21 16 -21 20 0 5
-10 8 -22 9 -22 0 -22 1 2 11 l25 11 -35 8 c-19 4 -38 5 -42 3 -5 -3 -13 -2
-19 2 -20 12 11 22 52 17 25 -4 39 -2 39 6 0 6 -18 11 -42 11 -24 0 -50 5 -58
11 -11 7 3 9 50 5 53 -5 61 -4 43 6 -26 13 -30 28 -8 28 8 0 15 5 15 10 0 6
-27 10 -61 10 -44 0 -60 3 -56 13 2 8 19 11 51 9 46 -4 47 -3 40 22 -5 21 -3
26 12 26 13 1 10 5 -11 14 -25 12 -27 15 -13 21 22 9 13 25 -13 25 -33 0 -16
25 19 28 64 6 24 32 -50 32 -21 0 -38 4 -38 10 0 6 26 8 65 6 50 -3 65 -1 65
9 0 18 -17 28 -25 15 -8 -12 -43 -3 -61 15 -17 17 2 35 37 35 33 0 42 11 33
44 -4 17 -14 26 -32 28 -19 2 -28 10 -30 26 -4 27 -22 29 -22 2 0 -17 -7 -20
-45 -20 -41 0 -45 2 -45 25 0 22 4 25 25 21 13 -3 27 0 30 5 4 5 -1 9 -10 9
-12 0 -15 5 -11 16 3 9 6 20 6 26 0 7 23 9 68 4 46 -4 62 -3 52 4 -8 5 -28 10
-43 10 -24 0 -28 4 -25 23 2 17 11 23 43 28 22 3 34 7 26 8 -8 0 -11 8 -8 20
4 15 -2 20 -29 26 -25 4 -34 11 -34 25 0 17 7 20 42 20 23 0 39 2 37 4 -5 5
-89 14 -136 15 -27 1 -33 5 -33 22 0 21 3 21 75 15 50 -5 75 -3 75 4 0 5 -8
10 -17 11 -10 0 -62 3 -116 5 -67 3 -104 9 -113 19 -22 22 -16 31 19 28 102
-8 227 -9 227 -2 0 5 -22 9 -49 9 -26 0 -69 3 -95 6 -37 5 -46 11 -46 26 0 15
4 18 18 13 9 -4 43 -8 75 -9 44 -1 54 2 42 10 -16 12 -21 34 -7 34 4 0 26 -19
49 -43z m2112 1 c37 -13 19 -20 -20 -7 -41 14 -67 35 -29 24 14 -4 36 -12 49
-17z m-3891 -5 c11 -10 23 -28 27 -40 5 -20 3 -23 -20 -23 -18 0 -28 7 -35 26
-20 53 -9 68 28 37z m3982 -23 c13 -8 13 -10 -2 -10 -9 0 -20 5 -23 10 -8 13
5 13 25 0z m-2595 -10 c3 -5 2 -10 -4 -10 -5 0 -13 5 -16 10 -3 6 -2 10 4 10
5 0 13 -4 16 -10z m-196 -28 c-14 -5 -39 6 -39 17 0 5 11 4 25 -2 13 -7 20
-14 14 -15z m331 19 c0 -5 -7 -12 -16 -15 -21 -8 -65 4 -58 15 7 12 74 12 74
0z m420 -46 c0 -38 -3 -45 -19 -45 -14 0 -18 5 -14 20 4 15 0 20 -16 20 -30 0
-28 37 2 43 46 9 47 8 47 -38z m2135 35 c13 -5 14 -9 5 -9 -8 0 -24 4 -35 9
-13 5 -14 9 -5 9 8 0 24 -4 35 -9z m-4000 -19 c3 -5 1 -12 -4 -15 -5 -3 -11 1
-15 9 -6 16 9 21 19 6z m4084 -37 c112 -33 115 -34 110 -39 -7 -6 -192 45
-203 56 -15 14 1 11 93 -17z m26 16 c3 -6 -1 -7 -9 -4 -18 7 -21 14 -7 14 6 0
13 -4 16 -10z m-2562 -15 c-4 -13 -153 -19 -153 -6 0 6 26 12 58 14 79 5 97 4
95 -8z m-1529 -25 l21 -21 -50 5 -50 6 35 -14 35 -14 -51 -1 c-37 -1 -53 3
-58 14 -3 8 -16 15 -28 15 -13 0 -31 7 -42 15 -16 12 -11 13 39 8 46 -5 56 -3
50 7 -14 23 75 5 99 -20z m1616 -52 c0 -20 -4 -21 -76 -15 -81 6 -128 27 -62
27 20 0 39 3 42 8 2 4 25 6 50 4 38 -3 46 -7 46 -24z m1517 16 c-3 -3 -12 -4
-19 -1 -8 3 -5 6 6 6 11 1 17 -2 13 -5z m-3330 -10 c-3 -3 -12 -4 -19 -1 -8 3
-5 6 6 6 11 1 17 -2 13 -5z m1416 -14 c-3 -12 -6 -19 -7 -18 -1 2 -8 11 -15
21 -12 15 -11 17 7 17 15 0 19 -5 15 -20z m3572 -76 c83 -20 196 -47 253 -61
95 -22 119 -33 168 -80 7 -7 18 -13 25 -13 9 0 10 -3 2 -11 -7 -7 -58 -4 -174
11 -90 12 -177 24 -194 26 -171 21 -282 40 -292 50 -6 6 -41 14 -78 18 -69 7
-133 41 -151 80 -5 11 -28 26 -51 35 -46 16 -60 37 -18 27 14 -4 25 -3 25 2 0
11 309 -42 485 -84z m-4807 55 c34 -11 62 -22 62 -23 0 -2 -216 1 -232 3 -5 1
-8 5 -8 10 0 5 21 6 48 4 44 -5 46 -4 27 11 -19 15 -19 15 11 16 16 0 58 -9
92 -21z m-240 4 c-10 -2 -26 -2 -35 0 -10 3 -2 5 17 5 19 0 27 -2 18 -5z
m1930 -19 c7 -2 10 -9 7 -14 -4 -7 -32 -9 -73 -6 -84 5 -80 4 -60 20 16 12 90
12 126 0z m-383 -4 c3 -5 1 -10 -4 -10 -6 0 -11 5 -11 10 0 6 2 10 4 10 3 0 8
-4 11 -10z m225 0 c0 -5 -22 -10 -50 -10 -27 0 -50 5 -50 10 0 6 23 10 50 10
28 0 50 -4 50 -10z m-280 -10 c0 -5 -2 -10 -4 -10 -3 0 -8 5 -11 10 -3 6 -1
10 4 10 6 0 11 -4 11 -10z m-1270 -18 c26 -5 11 -8 -60 -12 -103 -5 -162 -2
-155 9 5 10 170 12 215 3z m2703 -13 c43 -7 67 -15 67 -24 0 -10 -8 -10 -41 1
-22 8 -74 17 -115 21 -41 3 -74 10 -74 15 0 9 34 6 163 -13z m-3358 -194 c10
-28 21 -54 25 -60 11 -17 33 -105 27 -111 -5 -5 -47 97 -47 115 0 4 -11 18
-25 31 -23 21 -22 19 10 -56 19 -44 35 -86 34 -94 0 -8 -9 7 -20 34 -19 47
-123 189 -198 270 l-36 39 33 -23 c34 -23 112 -114 112 -131 0 -5 5 -9 11 -9
8 0 8 4 1 13 -5 6 -13 23 -16 37 -6 22 -4 21 14 -7 12 -18 24 -33 26 -33 5 0
-23 61 -58 127 -16 28 -28 55 -28 59 0 20 119 -158 135 -201z m2305 179 c0
-26 0 -26 -62 -21 -35 3 -64 6 -65 6 -2 1 -3 6 -3 12 0 7 12 9 35 5 35 -7 51
8 18 17 -10 3 3 5 30 6 44 1 47 0 47 -25z m2145 5 c55 -6 103 -15 107 -18 4
-3 9 -117 12 -253 l6 -246 -67 -7 c-38 -4 -95 -11 -127 -16 -33 -4 -62 -6 -65
-3 -9 9 22 24 50 24 14 0 28 3 31 6 4 3 34 7 69 9 34 3 65 9 68 14 3 5 6 101
6 213 l0 203 -120 20 c-119 20 -120 20 -123 49 -3 27 -2 28 25 23 15 -3 73
-11 128 -18z m243 14 c-10 -2 -26 -2 -35 0 -10 3 -2 5 17 5 19 0 27 -2 18 -5z
m-2536 -18 c0 -5 -5 -11 -11 -13 -6 -2 -11 4 -11 13 0 9 5 15 11 13 6 -2 11
-8 11 -13z m2585 9 c-3 -3 -12 -4 -19 -1 -8 3 -5 6 6 6 11 1 17 -2 13 -5z
m-4157 -24 c0 -5 -4 -10 -10 -10 -5 0 -10 5 -10 10 0 6 5 10 10 10 6 0 10 -4
10 -10z m60 -5 c7 -8 29 -15 49 -15 32 -1 71 -18 71 -33 0 -3 -28 3 -62 14
-35 10 -71 19 -80 19 -10 0 -18 7 -18 15 0 8 6 15 14 15 7 0 19 -7 26 -15z
m77 9 c-3 -3 -12 -4 -19 -1 -8 3 -5 6 6 6 11 1 17 -2 13 -5z m4130 -30 l211
-27 7 -111 c3 -61 5 -167 3 -235 l-3 -124 -45 -13 c-76 -23 -90 -20 -88 21 2
46 -12 59 -52 50 -28 -6 -31 -9 -25 -36 6 -26 4 -29 -19 -29 -29 0 -37 27 -11
36 19 8 19 24 0 24 -22 0 -38 -38 -31 -75 6 -28 3 -33 -16 -39 -13 -3 -36 -6
-51 -6 l-28 0 7 60 6 59 -58 -2 -59 -2 -3 38 c-2 28 0 37 12 37 9 0 16 -6 16
-12 0 -9 3 -8 10 2 12 20 -6 39 -30 33 -19 -5 -20 1 -20 192 l0 197 28 -6 c15
-3 122 -17 239 -32z m223 20 c0 -2 -7 -4 -15 -4 -8 0 -15 4 -15 10 0 5 7 7 15
4 8 -4 15 -8 15 -10z m-1158 -41 c-58 -127 -76 -153 -104 -153 -34 0 -36 8 -5
19 17 7 7 10 -45 16 -56 6 -68 10 -68 25 0 10 9 22 20 25 11 3 20 10 20 15 0
5 30 10 68 12 l67 3 -62 9 c-35 5 -63 13 -63 18 0 6 -7 8 -15 4 -8 -3 -15 -1
-15 4 0 6 42 11 98 12 53 1 79 3 57 5 -67 7 -65 23 3 23 l61 0 -17 -37z
m-3371 2 c81 -3 157 -9 170 -14 23 -9 -24 -11 -286 -15 -81 -1 -142 13 -147
32 -4 16 1 17 56 9 34 -4 127 -10 207 -12z m2701 -39 c12 -9 40 -16 62 -16 22
0 37 -3 33 -6 -3 -4 -36 -3 -72 1 l-65 7 1 36 c0 31 2 34 9 16 5 -12 19 -29
32 -38z m757 -14 c43 -72 47 -82 31 -82 -5 0 -10 5 -10 11 0 6 -16 38 -35 70
-19 33 -35 62 -35 65 0 13 12 -3 49 -64z m1366 3 c55 -8 103 -15 108 -15 4 0
7 -76 7 -169 0 -166 0 -169 -22 -175 -13 -3 -36 -5 -53 -5 -24 1 -26 3 -7 6
18 4 23 10 20 31 -3 25 -6 27 -43 24 -50 -4 -77 -27 -69 -58 5 -19 1 -24 -19
-29 -63 -16 -62 -19 -65 203 l-2 202 22 0 c13 0 68 -7 123 -15z m-4691 -6 c50
-6 95 -16 101 -21 6 -5 -14 -6 -49 -2 -47 6 -57 5 -51 -6 6 -10 -2 -12 -40 -8
-26 3 -51 11 -55 18 -4 7 -25 16 -46 20 l-39 8 44 1 c25 0 85 -4 135 -10z
m2746 -27 c0 -12 -3 -13 -12 -4 -7 7 -23 13 -37 13 -24 1 -24 2 4 8 36 9 45 5
45 -17z m492 3 c-2 -14 -8 -25 -13 -25 -12 0 -11 7 1 31 14 26 18 24 12 -6z
m-3422 -15 c20 -6 14 -8 -25 -8 -27 0 -61 4 -75 8 -20 6 -14 8 25 8 28 0 61
-4 75 -8z m5273 -5 c16 -7 17 -20 15 -128 -2 -85 -7 -122 -15 -125 -8 -2 -13
6 -13 22 0 18 -5 26 -17 26 -31 0 -68 -25 -68 -45 0 -14 -8 -21 -27 -23 l-28
-3 0 147 0 147 68 -6 c37 -3 75 -9 85 -12z m-3373 -25 c0 -11 -6 -20 -13 -20
-19 0 -27 10 -20 26 8 21 33 17 33 -6z m3488 14 c12 -4 22 -13 22 -20 0 -8 5
-14 10 -14 6 0 10 -37 10 -90 0 -89 0 -90 -25 -90 -24 0 -24 1 -27 103 l-3
102 -40 6 -40 6 35 1 c19 1 45 -1 58 -4z m-5168 -30 c12 -12 9 -14 -25 -14
-22 0 -58 5 -80 11 -34 10 -37 13 -20 20 27 11 107 0 125 -17z m2552 -359 l37
-21 -42 2 c-23 1 -45 2 -49 3 -5 1 -7 92 -6 204 l1 202 11 -185 11 -184 37
-21z m-3201 339 c-5 -16 -10 -21 -10 -12 -1 18 10 51 15 45 2 -1 -1 -16 -5
-33z m3987 -142 l-1 -159 -26 5 c-23 5 -24 3 -13 -10 10 -13 10 -17 -3 -22 -9
-3 -25 -2 -35 4 -22 12 -30 -10 -30 -84 0 -36 5 -56 20 -72 l21 -21 -52 -7
c-28 -4 -54 -4 -57 -1 -4 3 1 34 10 68 9 34 18 69 20 77 2 10 -6 16 -24 18
l-28 3 0 -75 c0 -44 -4 -76 -10 -76 -6 0 -10 32 -10 75 0 43 -4 75 -10 75 -6
0 -10 -30 -10 -70 0 -62 -2 -70 -19 -70 -48 0 -63 20 -35 47 10 11 14 26 10
45 -4 21 -2 28 9 28 8 0 15 5 15 10 0 6 -4 10 -9 10 -10 0 -9 19 2 38 10 14 1
18 -68 28 -29 5 -41 9 -28 11 19 4 22 13 28 71 8 83 18 109 23 63 3 -30 21
-61 36 -61 3 0 7 39 9 88 2 74 3 68 6 -43 1 -71 6 -139 11 -150 8 -18 9 -18
10 5 1 14 3 30 5 35 1 6 3 61 3 123 2 82 5 112 15 112 9 0 10 -22 5 -92 -8
-125 -9 -193 -2 -185 3 3 10 30 14 59 l8 53 1 -52 c0 -31 6 -53 12 -53 8 0 10
40 8 130 -4 139 6 178 15 58 6 -96 16 -161 26 -171 4 -5 10 40 14 98 4 58 13
123 20 143 12 36 29 46 83 51 10 1 13 -36 11 -157z m-4276 101 c36 -19 75 -44
85 -56 l18 -21 -35 21 c-19 12 -69 40 -110 63 -88 49 -55 43 42 -7z m906 20
c-10 -2 -28 -2 -40 0 -13 2 -5 4 17 4 22 1 32 -1 23 -4z m2899 -200 c-2 -37
-3 -9 -3 62 0 72 1 102 3 68 2 -34 2 -93 0 -130z m-3126 150 c42 -22 49 -29
32 -31 -19 -3 -103 41 -103 53 0 10 20 4 71 -22z m-159 -4 l33 -20 -54 4 c-56
3 -80 22 -39 30 13 2 24 5 25 6 2 0 17 -8 35 -20z m101 -5 c36 -19 34 -25 -5
-17 -35 6 -88 30 -88 39 0 8 61 -7 93 -22z m146 -23 c-6 -2 -21 7 -33 19 l-21
23 33 -19 c18 -10 28 -20 21 -23z m67 15 c29 -21 10 -30 -25 -11 -17 8 -31 18
-31 20 0 11 37 4 56 -9z m64 -12 c0 -8 -4 -12 -10 -9 -5 3 -10 10 -10 16 0 5
5 9 10 9 6 0 10 -7 10 -16z m-711 -59 c-8 -7 -49 33 -49 48 0 6 12 -1 27 -15
15 -15 25 -30 22 -33z m1113 38 c17 -15 18 -15 18 3 1 18 1 18 14 2 7 -10 16
-18 20 -18 3 0 7 8 7 18 1 15 2 16 6 0 4 -14 13 -16 59 -12 64 6 84 -5 84 -47
l0 -29 -67 0 c-38 0 -85 -3 -105 -6 -37 -6 -38 -6 -38 22 0 28 1 29 47 26 27
-2 73 1 103 6 50 9 45 10 -62 11 -111 1 -118 2 -118 21 0 24 8 25 32 3z m4968
7 c0 -5 -4 -10 -10 -10 -5 0 -10 5 -10 10 0 6 5 10 10 10 6 0 10 -4 10 -10z
m-5675 -10 c7 -12 -54 -12 -100 0 -24 6 -18 8 32 9 34 0 65 -3 68 -9z m117 -4
c24 -1 58 -3 76 -4 17 -1 32 -6 32 -12 0 -10 -148 -5 -182 6 -28 8 -21 25 7
18 14 -3 44 -7 67 -8z m1402 -23 c2 -10 7 -140 11 -290 l7 -272 -24 -5 c-38
-8 -290 -27 -294 -23 -9 9 -7 578 2 587 8 8 62 12 231 18 51 2 62 -1 67 -15z
m2219 10 c-7 -2 -19 -2 -25 0 -7 3 -2 5 12 5 14 0 19 -2 13 -5z m-3433 -13 c0
-5 -5 -10 -11 -10 -5 0 -7 5 -4 10 3 6 8 10 11 10 2 0 4 -4 4 -10z m340 -10
c6 -11 8 -20 6 -20 -3 0 -10 9 -16 20 -6 11 -8 20 -6 20 3 0 10 -9 16 -20z
m534 -22 c3 -16 3 -34 0 -39 -6 -10 -227 -12 -237 -2 -18 17 37 32 122 34 89
1 91 2 87 25 -7 35 21 19 28 -18z m-1081 25 c90 -5 121 -14 80 -25 -18 -5
-274 18 -303 26 -20 6 99 5 223 -1z m344 -15 c-3 -8 -6 -5 -6 6 -1 11 2 17 5
13 3 -3 4 -12 1 -19z m243 -6 c0 -15 -2 -15 -10 -2 -13 20 -13 33 0 25 6 -3
10 -14 10 -23z m-940 -104 c0 -67 -3 -119 -6 -116 -3 3 -6 30 -6 59 -1 30 -5
59 -10 66 -5 7 -7 21 -3 33 4 11 2 20 -4 20 -16 0 -13 21 6 42 9 10 18 18 20
18 1 0 3 -55 3 -122z m2240 107 c0 -16 -35 -21 -44 -6 -8 12 4 21 26 21 10 0
18 -7 18 -15z m2050 -34 c0 -44 -2 -49 -20 -44 -11 3 -20 11 -20 18 0 12 31
75 38 75 1 0 2 -22 2 -49z m1305 39 c3 -5 -1 -10 -10 -10 -9 0 -13 5 -10 10 3
6 8 10 10 10 2 0 7 -4 10 -10z m35 6 c0 -3 -4 -8 -10 -11 -5 -3 -10 -1 -10 4
0 6 5 11 10 11 6 0 10 -2 10 -4z m-5484 -25 c16 -5 41 -12 57 -15 41 -9 33
-26 -10 -20 -43 6 -83 23 -83 36 0 10 1 10 36 -1z m4231 3 c-3 -3 -12 -4 -19
-1 -8 3 -5 6 6 6 11 1 17 -2 13 -5z m-382 -14 c3 -5 -3 -10 -14 -10 -12 0 -21
5 -21 10 0 6 6 10 14 10 8 0 18 -4 21 -10z m-1751 -6 c26 -10 6 -34 -28 -34
-41 0 -51 9 -28 26 19 15 33 17 56 8z m1786 2 c0 -3 -4 -8 -10 -11 -5 -3 -10
-1 -10 4 0 6 5 11 10 11 6 0 10 -2 10 -4z m1257 -23 c-3 -3 -11 -2 -17 2 -9 6
-9 10 1 16 14 8 27 -7 16 -18z m-37 2 c0 -8 -9 -15 -20 -15 -20 0 -26 11 -13
23 12 13 33 7 33 -8z m-5130 -5 c0 -5 -2 -10 -4 -10 -3 0 -8 5 -11 10 -3 6 -1
10 4 10 6 0 11 -4 11 -10z m195 0 c7 -12 -12 -12 -40 0 -18 8 -17 9 7 9 15 1
30 -3 33 -9z m75 -5 c10 -12 9 -15 -6 -15 -11 0 -28 7 -38 15 -19 14 -19 15 6
15 14 0 31 -7 38 -15z m517 -7 c-3 -8 -6 -5 -6 6 -1 11 2 17 5 13 3 -3 4 -12
1 -19z m38 12 c3 -5 1 -10 -4 -10 -6 0 -11 5 -11 10 0 6 2 10 4 10 3 0 8 -4
11 -10z m-674 -26 c19 -17 33 -18 23 -3 -5 9 1 10 22 4 30 -8 62 -13 102 -14
12 -1 22 -6 22 -12 0 -18 -172 -3 -183 16 -4 8 -22 15 -40 15 -18 0 -39 5 -47
11 -11 8 -1 9 35 4 28 -4 57 -13 66 -21z m618 -22 c1 -7 -3 -10 -9 -7 -5 3
-10 18 -9 33 0 24 1 25 9 7 5 -11 9 -26 9 -33z m-414 28 c3 -5 -1 -10 -10 -10
-9 0 -13 5 -10 10 3 6 8 10 10 10 2 0 7 -4 10 -10z m-306 -16 c2 -2 -10 -4
-27 -4 -18 0 -32 5 -32 10 0 9 47 4 59 -6z m781 -15 c0 -5 -4 -9 -10 -9 -5 0
-10 7 -10 16 0 8 5 12 10 9 6 -3 10 -10 10 -16z m27 -1 c-3 -8 -6 -5 -6 6 -1
11 2 17 5 13 3 -3 4 -12 1 -19z m2259 -14 c-8 -20 -61 -15 -61 6 0 10 9 14 28
13 15 -1 27 4 28 10 0 8 2 8 6 -1 3 -7 2 -20 -1 -28z m1567 -5 c-13 -13 -43
-5 -43 10 0 13 33 20 45 9 5 -5 5 -12 -2 -19z m222 11 c-11 -5 -29 -9 -40 -9
l-20 0 20 9 c11 5 29 9 40 9 l20 0 -20 -9z m-2775 -21 c0 -11 -21 -12 -45 -3
-12 5 -13 9 -5 14 15 9 50 1 50 -11z m1286 12 c5 -5 25 -11 44 -14 27 -3 23
-4 -17 -5 -41 -2 -53 1 -53 13 0 17 11 20 26 6z m1034 -15 c0 -40 -12 -86 -21
-80 -5 3 -9 27 -9 55 0 37 4 49 15 49 9 0 15 -9 15 -24z m-4334 4 c8 0 14 -4
14 -9 0 -13 -40 -5 -54 10 -8 9 -6 10 7 5 10 -3 25 -6 33 -6z m92 -9 c11 -7
11 -9 -1 -14 -9 -3 -21 1 -27 9 -10 11 -10 14 1 14 8 0 20 -4 27 -9z m562 -24
c0 -18 -2 -19 -10 -7 -13 20 -13 43 0 35 6 -3 10 -16 10 -28z m38 14 c3 -8 -1
-12 -9 -9 -7 2 -15 10 -17 17 -3 8 1 12 9 9 7 -2 15 -10 17 -17z m92 -2 c0 -6
-4 -7 -10 -4 -5 3 -10 11 -10 16 0 6 5 7 10 4 6 -3 10 -11 10 -16z m3502 -31
c2 -21 0 -38 -4 -38 -4 0 -8 21 -7 48 1 52 6 48 11 -10z m-4146 20 c-2 -19
-16 -29 -16 -13 0 3 0 12 0 20 0 8 4 15 10 15 5 0 8 -10 6 -22z m44 12 c0 -5
-2 -10 -4 -10 -3 0 -8 5 -11 10 -3 6 -1 10 4 10 6 0 11 -4 11 -10z m570 -18
c0 -15 -2 -15 -10 -2 -13 20 -13 33 0 25 6 -3 10 -14 10 -23z m3170 -1 c0 -50
-12 -121 -21 -121 -5 0 -9 34 -9 75 0 60 3 75 15 75 10 0 15 -10 15 -29z m645
19 c-3 -5 -18 -10 -33 -9 -24 0 -25 1 -7 9 28 12 47 12 40 0z m-4615 -10 c12
-8 11 -10 -7 -10 -13 0 -23 5 -23 10 0 13 11 13 30 0z m669 -12 c12 -15 11
-18 -3 -18 -10 0 -16 8 -16 22 0 12 1 19 3 17 1 -2 9 -12 16 -21z m-1073 -12
c2 -12 -2 -16 -13 -12 -8 3 -19 6 -25 6 -6 0 -5 6 2 15 16 19 32 15 36 -9z
m522 10 c3 -3 -11 -6 -31 -6 -20 0 -39 5 -42 10 -7 11 62 6 73 -4z m652 -7 c0
-6 -4 -7 -10 -4 -5 3 -10 11 -10 16 0 6 5 7 10 4 6 -3 10 -11 10 -16z m2615
11 c3 -6 -5 -10 -19 -10 -14 0 -28 5 -31 10 -3 6 5 10 19 10 14 0 28 -4 31
-10z m528 -57 c3 -35 1 -63 -4 -63 -5 0 -9 30 -9 67 0 81 5 79 13 -4z m-156
35 c-3 -8 -6 -5 -6 6 -1 11 2 17 5 13 3 -3 4 -12 1 -19z m-3267 -13 c0 -8 -4
-15 -10 -15 -5 0 -10 7 -10 15 0 8 5 15 10 15 6 0 10 -7 10 -15z m2740 -47 c0
-59 -20 -62 -33 -5 -11 45 -4 69 18 61 11 -4 15 -20 15 -56z m48 11 c-8 -74
-28 -88 -28 -18 0 31 3 59 7 62 18 18 25 3 21 -44z m-3490 5 c-4 -3 -12 5 -18
18 -12 22 -12 22 6 6 10 -10 15 -20 12 -24z m3211 11 c17 -17 6 -35 -23 -35
-12 0 -26 -4 -31 -9 -12 -12 -107 -17 -123 -7 -16 9 6 43 40 61 28 16 116 9
137 -10z m438 19 c-3 -3 -12 -4 -19 -1 -8 3 -5 6 6 6 11 1 17 -2 13 -5z
m-3299 -22 c3 -9 -2 -13 -14 -10 -9 1 -19 9 -22 16 -3 9 2 13 14 10 9 -1 19
-9 22 -16z m2955 11 c-7 -2 -21 -2 -30 0 -10 3 -4 5 12 5 17 0 24 -2 18 -5z
m-2905 -22 c3 -8 -1 -12 -9 -9 -7 2 -15 10 -17 17 -3 8 1 12 9 9 7 -2 15 -10
17 -17z m415 -28 c3 -24 1 -43 -4 -43 -5 0 -9 21 -9 47 0 56 5 54 13 -4z
m1429 35 c-9 -9 -15 -9 -24 0 -9 9 -7 12 12 12 19 0 21 -3 12 -12z m1348 2 c0
-5 -4 -10 -10 -10 -5 0 -10 5 -10 10 0 6 5 10 10 10 6 0 10 -4 10 -10z m40 0
c0 -5 -4 -10 -10 -10 -5 0 -10 5 -10 10 0 6 5 10 10 10 6 0 10 -4 10 -10z
m-3325 -10 c3 -5 -1 -10 -9 -10 -9 0 -16 5 -16 10 0 6 4 10 9 10 6 0 13 -4 16
-10z m158 -10 c-3 -11 -7 -20 -9 -20 -2 0 -4 9 -4 20 0 11 4 20 9 20 5 0 7 -9
4 -20z m62 -28 c-8 -8 -25 10 -25 26 0 13 2 13 14 -4 8 -10 13 -21 11 -22z
m-513 6 c3 1 6 -14 5 -33 -1 -42 -9 -44 -26 -7 -8 15 -18 35 -23 45 -8 16 -7
17 14 5 13 -7 26 -11 30 -10z m2748 5 c-1 -19 -22 -53 -34 -53 -10 0 -7 38 4
45 6 4 8 11 5 16 -4 5 1 9 9 9 9 0 16 -8 16 -17z m30 -3 c0 -11 5 -20 10 -20
6 0 10 7 10 16 0 8 5 12 10 9 19 -12 10 -33 -20 -44 -30 -10 -31 -10 -28 24 2
37 18 49 18 15z m837 4 c-3 -3 -12 -4 -19 -1 -8 3 -5 6 6 6 11 1 17 -2 13 -5z
m-3669 -22 c2 -8 -9 -12 -35 -12 -38 0 -38 0 -13 14 28 16 42 15 48 -2z m145
-9 c-7 -2 -19 -2 -25 0 -7 3 -2 5 12 5 14 0 19 -2 13 -5z m2255 -98 c2 -97 2
-100 -22 -111 -18 -8 -41 -8 -91 1 -36 7 -67 14 -69 16 -1 2 1 18 5 34 4 17 7
24 8 16 1 -11 4 -11 17 -1 13 11 16 10 20 -7 5 -20 7 -20 23 -5 15 15 15 18 1
30 -11 10 -12 15 -2 18 6 3 12 21 12 40 0 32 -2 34 -25 28 -16 -4 -25 -2 -25
6 0 7 -7 10 -15 6 -8 -3 -15 -1 -15 4 0 13 41 13 75 0 23 -9 25 -14 20 -47 -5
-28 -4 -34 4 -23 6 8 11 31 11 51 0 43 7 51 40 47 25 -3 25 -4 28 -103z m789
66 c21 -28 15 -32 -44 -29 -47 2 -58 6 -61 22 -2 10 1 22 7 25 18 12 85 -1 98
-18z m73 10 c0 -21 -17 -37 -28 -26 -3 3 0 10 7 14 7 5 10 14 7 20 -4 6 -2 11
3 11 6 0 11 -9 11 -19z m-3250 -11 c0 -5 -9 -10 -19 -10 -11 0 -23 -4 -26 -10
-4 -6 8 -10 29 -10 29 0 36 -4 36 -20 0 -17 -7 -20 -47 -22 l-48 -2 48 -3 c46
-4 47 -5 47 -39 l0 -34 -55 0 c-34 0 -55 -4 -55 -11 0 -8 17 -10 50 -7 58 6
63 -5 30 -60 -19 -30 -24 -33 -62 -30 -35 3 -43 7 -49 28 -3 14 -2 30 3 37 6
8 6 32 -1 64 -6 29 -9 54 -6 57 3 3 5 -2 5 -11 0 -9 5 -19 11 -23 9 -5 10 4 5
32 -5 28 -4 35 3 24 9 -12 11 -11 11 6 0 12 7 25 16 28 8 3 12 10 9 16 -4 6 8
10 29 10 20 0 36 -4 36 -10z m3760 -10 c20 -5 13 -8 -35 -15 -102 -14 -139
-13 -172 3 -18 9 -33 20 -33 25 0 9 199 -2 240 -13z m-3350 -11 c13 -7 13 -8
-1 -9 -31 0 -79 12 -79 21 0 9 57 1 80 -12z m1740 -20 c0 -5 -4 -9 -10 -9 -5
0 -10 7 -10 16 0 8 5 12 10 9 6 -3 10 -10 10 -16z m104 15 c16 -6 23 -34 9
-34 -5 0 -19 9 -33 20 -19 15 -21 20 -8 20 9 0 23 -3 32 -6z m-1722 -15 c29
-6 58 -15 63 -21 6 -6 1 -7 -15 -4 -14 4 -54 12 -90 20 -36 8 -53 14 -38 15
15 1 51 -4 80 -10z m1718 -40 c0 -11 -3 -11 -24 -3 -23 9 -20 23 4 17 11 -3
20 -9 20 -14z m239 -41 c1 -5 -3 -8 -9 -8 -5 0 -10 12 -9 28 0 24 1 25 9 7 5
-11 9 -23 9 -27z m-1674 12 c8 -13 -5 -13 -25 0 -13 8 -13 10 2 10 9 0 20 -4
23 -10z m1342 -5 c3 -9 3 -18 1 -21 -9 -9 -38 8 -38 22 0 19 29 18 37 -1z
m-2127 -92 c-10 -16 -11 -15 -6 7 3 14 6 32 7 40 1 8 4 5 6 -7 2 -12 -1 -30
-7 -40z m11 -71 c-6 -2 -11 -10 -11 -18 0 -9 -4 -13 -9 -10 -4 3 -3 21 3 40
10 33 11 34 19 13 5 -13 4 -23 -2 -25z m234 27 c5 -5 -1 -9 -17 -9 -14 0 -32
7 -39 17 -13 15 -11 16 16 9 17 -4 34 -12 40 -17z m-141 -4 c-4 -8 -10 -15
-15 -15 -5 0 -9 7 -9 15 0 8 7 15 15 15 9 0 12 -6 9 -15z m1481 6 c-6 -5 -26
-10 -45 -11 -49 -3 -58 0 -35 10 28 12 92 12 80 1z m-1251 -21 c5 -5 15 -6 22
-3 25 9 64 -6 58 -22 -7 -17 -34 -21 -34 -5 0 13 -11 13 -30 0 -13 -9 -13 -11
0 -20 13 -8 13 -10 -1 -10 -9 0 -24 10 -33 23 -12 15 -18 18 -22 10 -7 -15
-80 -18 -89 -4 -3 5 9 11 27 13 26 2 32 7 30 21 -3 16 1 18 30 12 18 -4 37
-11 42 -15z m1796 -14 c0 -3 -4 -8 -10 -11 -5 -3 -10 -1 -10 4 0 6 5 11 10 11
6 0 10 -2 10 -4z m-1985 -16 c18 -8 18 -9 -5 -9 -36 -2 -70 -12 -70 -22 0 -5
7 -6 15 -2 14 5 14 2 3 -23 -16 -39 -15 -39 -34 -23 -16 13 -17 11 -10 -23 l7
-38 -28 12 c-34 14 -53 36 -53 60 0 14 5 17 24 12 13 -3 27 -1 30 5 5 7 -5 12
-26 12 -31 2 -32 2 -5 6 19 3 27 9 23 18 -3 9 4 15 22 18 47 7 86 6 107 -3z
m-300 -180 c3 -5 -1 -10 -9 -10 -9 0 -16 5 -16 10 0 6 4 10 9 10 6 0 13 -4 16
-10z m95 -5 c32 -16 55 -50 45 -65 -8 -13 -43 9 -48 32 -3 10 -14 18 -26 18
-21 0 -27 10 -14 23 9 9 10 9 43 -8z m90 0 c0 -8 -2 -15 -4 -15 -2 0 -6 7 -10
15 -3 8 -1 15 4 15 6 0 10 -7 10 -15z m984 -1 c9 -24 7 -28 -9 -14 -17 14 -20
30 -6 30 5 0 12 -7 15 -16z m76 0 c0 -8 -5 -12 -10 -9 -6 4 -8 11 -5 16 9 14
15 11 15 -7z m-1014 -31 c-10 -10 -19 5 -10 18 6 11 8 11 12 0 2 -7 1 -15 -2
-18z m899 -1 c-3 -3 0 -11 6 -19 9 -10 7 -13 -10 -13 -17 0 -21 6 -21 31 0 27
2 30 15 19 9 -7 13 -15 10 -18z m265 3 c0 -8 -7 -15 -15 -15 -16 0 -20 12 -8
23 11 12 23 8 23 -8z m-503 -11 c-3 -3 -12 -4 -19 -1 -8 3 -5 6 6 6 11 1 17
-2 13 -5z m-47 -14 c0 -5 -4 -10 -10 -10 -5 0 -10 5 -10 10 0 6 5 10 10 10 6
0 10 -4 10 -10z m-40 -9 c0 -17 -12 -41 -20 -41 -5 0 -6 10 -2 22 4 17 2 20
-11 15 -10 -4 -17 -2 -17 3 0 6 11 10 25 10 14 0 25 -4 25 -9z m170 -11 c0 -5
-4 -10 -10 -10 -5 0 -10 5 -10 10 0 6 5 10 10 10 6 0 10 -4 10 -10z m-302 -16
c31 -9 27 -19 -8 -20 -19 -1 -30 4 -30 12 0 16 5 16 38 8z m343 -7 c-1 -12
-15 -9 -19 4 -3 6 1 10 8 8 6 -3 11 -8 11 -12z m-411 -17 c0 -5 -4 -10 -10
-10 -5 0 -10 5 -10 10 0 6 5 10 10 10 6 0 10 -4 10 -10z m340 -14 c0 -3 -4 -8
-10 -11 -5 -3 -10 -1 -10 4 0 6 5 11 10 11 6 0 10 -2 10 -4z m-690 -26 c0 -5
-5 -10 -11 -10 -5 0 -7 5 -4 10 3 6 8 10 11 10 2 0 4 -4 4 -10z"/>
<path d="M4790 4050 c0 -5 7 -10 16 -10 8 0 12 5 9 10 -3 6 -10 10 -16 10 -5
0 -9 -4 -9 -10z"/>
<path d="M4688 4013 c6 -2 18 -2 25 0 6 3 1 5 -13 5 -14 0 -19 -2 -12 -5z"/>
<path d="M5343 3875 c7 -8 150 -54 170 -55 5 0 6 4 2 9 -3 5 -36 16 -74 25
-38 9 -77 19 -87 22 -11 4 -16 3 -11 -1z"/>
<path d="M5128 3703 c7 -3 16 -2 19 1 4 3 -2 6 -13 5 -11 0 -14 -3 -6 -6z"/>
<path d="M5372 3650 c9 -6 45 -12 80 -15 75 -6 43 8 -42 18 -39 5 -50 4 -38
-3z"/>
<path d="M6080 3622 c0 -6 26 -16 57 -22 32 -7 63 -15 70 -17 7 -3 13 -1 13 4
0 6 -26 16 -57 23 -32 7 -64 15 -70 17 -7 3 -13 0 -13 -5z"/>
<path d="M5361 3606 c9 -9 170 -33 174 -26 2 4 -31 12 -73 18 -81 13 -108 15
-101 8z"/>
<path d="M6072 3575 c8 -9 141 -45 162 -45 34 0 10 11 -69 31 -80 20 -102 23
-93 14z"/>
<path d="M2700 3500 c0 -6 32 -10 75 -10 43 0 75 4 75 10 0 6 -32 10 -75 10
-43 0 -75 -4 -75 -10z"/>
<path d="M2750 3431 c0 -6 34 -10 75 -10 41 0 75 4 75 10 0 5 -34 9 -75 9 -41
0 -75 -4 -75 -9z"/>
<path d="M2765 3340 c3 -6 50 -10 106 -10 64 0 98 4 94 10 -3 6 -50 10 -106
10 -64 0 -98 -4 -94 -10z"/>
<path d="M2848 3263 c34 -2 88 -2 120 0 31 2 3 3 -63 3 -66 0 -92 -1 -57 -3z"/>
<path d="M3868 3213 c7 -3 16 -2 19 1 4 3 -2 6 -13 5 -11 0 -14 -3 -6 -6z"/>
<path d="M2950 3190 c-10 -7 19 -10 90 -10 71 0 100 3 90 10 -8 5 -49 10 -90
10 -41 0 -82 -5 -90 -10z"/>
<path d="M2863 3183 c9 -2 23 -2 30 0 6 3 -1 5 -18 5 -16 0 -22 -2 -12 -5z"/>
<path d="M3758 3163 c6 -2 18 -2 25 0 6 3 1 5 -13 5 -14 0 -19 -2 -12 -5z"/>
<path d="M3848 3163 c7 -3 16 -2 19 1 4 3 -2 6 -13 5 -11 0 -14 -3 -6 -6z"/>
<path d="M3908 3163 c12 -2 30 -2 40 0 9 3 -1 5 -23 4 -22 0 -30 -2 -17 -4z"/>
<path d="M7263 3374 c9 -3 15 -9 13 -13 -3 -4 9 -5 25 -3 37 5 35 8 -16 15
-22 3 -32 3 -22 1z"/>
<path d="M7514 3289 c-3 -5 6 -9 20 -9 31 0 34 6 6 13 -11 3 -23 1 -26 -4z"/>
<path d="M6636 3169 c4 -85 9 -156 11 -159 6 -6 13 -7 59 -9 36 -1 40 -21 3
-21 -10 0 -19 -4 -19 -10 0 -5 14 -10 30 -10 20 0 30 5 30 15 0 8 5 15 11 15
5 0 7 -4 4 -10 -3 -5 3 -10 14 -10 11 0 23 5 27 12 4 7 3 8 -5 4 -9 -6 -10 0
-5 20 6 25 5 26 -20 20 -25 -6 -26 -5 -14 14 7 11 17 20 23 20 6 0 11 47 11
119 l2 118 -59 7 c-33 3 -71 9 -84 12 l-25 6 6 -153z m33 63 c1 -7 -3 -10 -9
-7 -5 3 -10 18 -9 33 0 24 1 25 9 7 5 -11 9 -26 9 -33z m14 -204 c8 -5 6 -8
-5 -8 -14 0 -18 8 -17 38 2 34 2 34 6 7 3 -16 10 -33 16 -37z m42 22 c3 -5 1
-10 -4 -10 -6 0 -11 5 -11 10 0 6 2 10 4 10 3 0 8 -4 11 -10z"/>
<path d="M6540 2980 c0 -5 11 -10 25 -10 14 0 25 -4 25 -10 0 -5 -7 -10 -16
-10 -9 0 -23 -8 -30 -17 -11 -15 -15 -16 -23 -4 -9 14 -31 7 -31 -9 0 -20 41
-20 79 0 45 22 52 43 22 60 -25 13 -51 13 -51 0z"/>
<path d="M6715 2860 c-3 -5 -1 -10 4 -10 6 0 11 5 11 10 0 6 -2 10 -4 10 -3 0
-8 -4 -11 -10z"/>
<path d="M7158 3193 c4 -44 23 -75 30 -53 2 6 10 4 18 -4 7 -8 23 -12 34 -9
11 3 27 0 35 -7 9 -7 17 -11 19 -9 2 2 7 32 11 67 l7 62 -80 0 -80 0 6 -47z"/>
<path d="M5076 2748 c-4 -9 -5 -22 -1 -28 8 -13 45 -13 45 0 0 6 -6 10 -14 10
-8 0 -16 8 -19 18 -4 16 -4 16 -11 0z"/>
<path d="M5165 2740 c4 -6 11 -8 16 -5 14 9 11 15 -7 15 -8 0 -12 -5 -9 -10z"/>
<path d="M5035 2730 c3 -5 8 -10 11 -10 2 0 4 5 4 10 0 6 -5 10 -11 10 -5 0
-7 -4 -4 -10z"/>
<path d="M6913 4532 c-7 -4 -13 -37 -15 -72 l-3 -65 -30 3 c-16 2 -39 -4 -50
-11 -30 -22 -3 -49 44 -45 l36 3 -3 -180 c-3 -179 3 -213 31 -202 12 4 16 41
22 191 l7 185 47 3 c38 3 46 6 46 23 0 17 -8 20 -47 23 l-48 3 0 63 c0 64 -14
92 -37 78z"/>
<path d="M7145 4518 c-3 -13 -4 -140 -3 -283 3 -252 4 -260 23 -260 19 0 20 8
25 158 l5 159 28 24 c40 34 89 33 113 -3 16 -24 20 -52 22 -183 2 -85 8 -159
13 -165 6 -6 15 -4 24 6 12 11 15 44 16 146 0 151 -11 204 -52 246 -26 26 -35
28 -77 24 -26 -2 -57 -8 -70 -12 -23 -8 -23 -7 -21 66 2 41 0 80 -5 87 -12 20
-35 14 -41 -10z"/>
<path d="M8046 4518 c-3 -13 -7 -139 -9 -281 -3 -205 -1 -261 10 -275 12 -16
14 -16 28 2 11 15 15 49 15 143 l0 123 91 0 92 0 -6 -94 c-7 -125 0 -176 24
-176 11 0 21 9 24 23 3 12 4 141 3 287 l-3 265 -22 3 c-22 3 -22 1 -25 -125
l-3 -128 -87 -3 -87 -3 -3 128 c-3 111 -5 128 -20 131 -11 2 -19 -5 -22 -20z"/>
<path d="M8569 4538 c-4 -13 -6 -528 -2 -545 3 -14 13 -23 24 -23 18 0 19 12
20 248 1 136 3 258 4 272 4 35 -4 50 -26 50 -10 0 -19 -1 -20 -2z"/>
<path d="M8717 4534 c-9 -10 -8 -538 2 -553 5 -8 16 -11 25 -8 14 6 16 39 16
287 0 265 -1 280 -18 280 -10 0 -21 -3 -25 -6z"/>
<path d="M8403 4454 c-8 -20 8 -48 30 -52 19 -4 39 30 31 52 -8 21 -53 21 -61
0z"/>
<path d="M6327 4404 c-4 -4 -7 -103 -7 -219 0 -174 3 -215 15 -225 29 -24 35
0 35 133 0 145 11 201 41 217 34 19 71 8 91 -26 22 -38 42 -189 34 -255 -5
-34 -2 -50 8 -59 8 -6 19 -9 24 -6 28 17 19 275 -12 334 -29 55 -54 72 -104
72 -27 0 -53 -5 -59 -11 -8 -8 -15 -3 -24 17 -15 29 -30 39 -42 28z"/>
<path d="M6035 4386 c-39 -17 -60 -41 -84 -96 -77 -176 14 -364 162 -336 45 8
92 61 108 118 29 108 -11 259 -80 305 -39 26 -63 28 -106 9z m69 -46 c14 -5
35 -28 48 -52 32 -61 33 -203 2 -245 -32 -43 -68 -52 -112 -28 -71 38 -90 166
-39 267 12 24 33 49 47 55 30 15 24 15 54 3z"/>
<path d="M7545 4367 c-115 -115 -65 -417 69 -417 51 0 90 23 110 64 20 42 20
70 2 85 -17 14 -26 4 -41 -49 -7 -24 -19 -38 -38 -45 -44 -15 -78 10 -99 70
l-16 50 67 6 c112 11 151 41 151 117 0 46 -31 97 -79 129 -49 33 -86 30 -126
-10z m114 -43 c41 -34 52 -88 23 -117 -24 -23 -134 -38 -146 -19 -11 19 16
115 40 139 30 29 45 29 83 -3z"/>
<path d="M8417 4383 c-8 -14 -18 -359 -12 -386 5 -17 14 -27 26 -27 10 0 19 3
19 8 5 94 2 391 -4 400 -8 14 -23 16 -29 5z"/>
<path d="M4178 4293 c7 -3 16 -2 19 1 4 3 -2 6 -13 5 -11 0 -14 -3 -6 -6z"/>
<path d="M4587 3418 c3 -40 11 -79 18 -86 8 -9 49 -16 114 -19 l101 -6 0 80 0
80 -69 12 c-39 6 -92 11 -119 11 l-49 0 4 -72z"/>
<path d="M5748 3393 c7 -3 16 -2 19 1 4 3 -2 6 -13 5 -11 0 -14 -3 -6 -6z"/>
<path d="M6060 3386 c0 -2 14 -6 30 -8 17 -3 30 -1 30 4 0 4 -13 8 -30 8 -16
0 -30 -2 -30 -4z"/>
<path d="M4576 3291 c-4 -6 -4 -119 0 -251 6 -207 9 -240 23 -244 25 -8 180
-11 187 -4 11 12 -5 26 -38 32 -56 11 -62 18 -44 60 9 21 20 35 25 32 9 -6 20
48 22 109 0 22 4 49 9 60 7 14 9 2 7 -40 -2 -57 -1 -60 21 -58 21 3 22 0 22
-72 0 -43 4 -75 10 -75 6 0 10 82 10 225 l0 225 -48 0 c-27 0 -83 3 -124 6
-52 5 -77 3 -82 -5z m64 -452 c0 -5 -4 -9 -10 -9 -5 0 -10 7 -10 16 0 8 5 12
10 9 6 -3 10 -10 10 -16z"/>
<path d="M8030 2990 c0 -6 7 -10 15 -10 8 0 15 2 15 4 0 2 -7 6 -15 10 -8 3
-15 1 -15 -4z"/>
<path d="M8100 2986 c0 -2 9 -6 20 -9 11 -3 20 -1 20 4 0 5 -9 9 -20 9 -11 0
-20 -2 -20 -4z"/>
<path d="M8152 2965 c-11 -13 -9 -15 8 -15 12 0 18 5 15 10 -3 6 -2 10 4 10 5
0 13 -5 16 -10 3 -6 17 -7 31 -4 13 3 54 -1 91 -9 100 -23 133 -27 133 -18 0
6 -248 52 -277 51 -4 -1 -14 -7 -21 -15z"/>
<path d="M7860 2912 c0 -5 7 -15 15 -22 12 -10 19 -10 27 -2 14 14 11 17 -19
26 -13 4 -23 3 -23 -2z"/>
<path d="M8178 2913 c-25 -6 -22 -22 5 -32 12 -5 48 -19 80 -31 61 -24 71 -40
35 -58 -13 -6 -18 -11 -12 -11 5 -1 19 5 30 13 30 23 7 47 -70 75 -60 21 -65
25 -49 37 18 13 13 15 -19 7z"/>
<path d="M8333 2913 c9 -2 23 -2 30 0 6 3 -1 5 -18 5 -16 0 -22 -2 -12 -5z"/>
<path d="M7990 2896 c0 -9 5 -16 10 -16 6 0 10 4 10 9 0 6 -4 13 -10 16 -5 3
-10 -1 -10 -9z"/>
<path d="M7720 2890 c-13 -9 -13 -11 -1 -19 17 -11 43 -3 38 12 -5 15 -20 18
-37 7z"/>
<path d="M7600 2870 c0 -5 5 -10 11 -10 5 0 7 5 4 10 -3 6 -8 10 -11 10 -2 0
-4 -4 -4 -10z"/>
<path d="M7440 2821 c0 -6 5 -13 10 -16 6 -3 10 1 10 9 0 9 -4 16 -10 16 -5 0
-10 -4 -10 -9z"/>
<path d="M7310 2803 c0 -7 9 -13 20 -13 11 0 20 6 20 13 0 7 -9 13 -20 13 -11
0 -20 -6 -20 -13z"/>
<path d="M7621 2737 c-13 -16 -5 -27 21 -27 21 0 23 13 4 29 -10 8 -16 8 -25
-2z"/>
<path d="M7030 2713 c0 -9 8 -13 23 -11 25 3 21 21 -5 23 -10 1 -18 -5 -18
-12z"/>
<path d="M7465 2681 c-8 -15 3 -31 21 -31 9 0 14 7 12 17 -4 20 -24 28 -33 14z"/>
<path d="M6825 2670 c-19 -7 -19 -7 2 -18 16 -9 24 -9 29 -1 10 16 -8 28 -31
19z"/>
<path d="M6982 2631 c-22 -6 -22 -6 -2 -19 17 -10 21 -10 26 3 8 20 4 23 -24
16z"/>
<path d="M7120 2625 c7 -9 15 -13 17 -11 7 7 -7 26 -19 26 -6 0 -6 -6 2 -15z"/>
<path d="M6210 2580 c0 -5 5 -10 10 -10 6 0 10 5 10 10 0 6 -4 10 -10 10 -5 0
-10 -4 -10 -10z"/>
<path d="M6490 2582 c0 -5 7 -13 16 -16 10 -4 14 -1 12 6 -5 15 -28 23 -28 10z"/>
<path d="M7370 2554 c0 -17 22 -14 28 4 2 7 -3 12 -12 12 -9 0 -16 -7 -16 -16z"/>
<path d="M6722 2514 c9 -9 21 -13 27 -9 16 10 3 25 -22 25 -20 0 -20 -1 -5
-16z"/>
<path d="M6180 2510 c0 -5 9 -10 20 -10 11 0 20 5 20 10 0 6 -9 10 -20 10 -11
0 -20 -4 -20 -10z"/>
<path d="M3956 2502 c-5 -9 52 -47 60 -39 3 3 -8 14 -25 26 -16 12 -32 18 -35
13z"/>
<path d="M6395 2400 c3 -5 11 -10 16 -10 6 0 7 5 4 10 -3 6 -11 10 -16 10 -6
0 -7 -4 -4 -10z"/>
<path d="M5485 2380 c3 -5 13 -10 21 -10 8 0 12 5 9 10 -3 6 -13 10 -21 10 -8
0 -12 -4 -9 -10z"/>
<path d="M3265 2335 c25 -21 85 -35 85 -20 0 6 -90 45 -104 45 -6 -1 3 -12 19
-25z"/>
<path d="M5720 2329 c-13 -8 -13 -10 0 -19 21 -14 30 -12 30 4 0 20 -13 27
-30 15z"/>
<path d="M5193 2323 c-18 -6 -16 -23 1 -23 17 0 30 16 19 23 -5 2 -14 2 -20 0z"/>
<path d="M5986 2313 c-2 -3 -2 -11 1 -19 4 -10 10 -11 25 -3 11 6 17 13 14 17
-9 8 -33 11 -40 5z"/>
<path d="M6421 2271 c-8 -5 -10 -14 -7 -20 8 -13 46 -15 46 -2 0 16 -25 30
-39 22z"/>
<path d="M5390 2206 c0 -9 5 -16 10 -16 6 0 10 4 10 9 0 6 -4 13 -10 16 -5 3
-10 -1 -10 -9z"/>
<path d="M5920 2211 c0 -12 29 -23 41 -15 18 10 9 24 -16 24 -14 0 -25 -4 -25
-9z"/>
<path d="M4281 2176 c-14 -17 -1 -28 19 -16 11 7 12 12 4 20 -8 8 -14 7 -23
-4z"/>
<path d="M4346 2181 c-4 -7 -5 -15 -2 -18 9 -9 19 4 14 18 -4 11 -6 11 -12 0z"/>
<path d="M4667 2123 c-12 -11 -8 -23 7 -23 8 0 16 7 20 15 5 15 -14 21 -27 8z"/>
<path d="M4982 2108 c5 -15 37 -18 41 -4 1 5 -9 11 -21 13 -16 2 -22 -1 -20
-9z"/>
<path d="M5412 2063 c2 -10 10 -18 18 -18 22 0 18 29 -3 33 -14 3 -18 -1 -15
-15z"/>
<path d="M3660 2036 c0 -8 5 -18 10 -21 6 -3 10 1 10 9 0 8 -4 18 -10 21 -5 3
-10 -1 -10 -9z"/>
<path d="M3630 2020 c0 -5 5 -10 10 -10 6 0 10 5 10 10 0 6 -4 10 -10 10 -5 0
-10 -4 -10 -10z"/>
<path d="M4321 1981 c-7 -5 -11 -13 -7 -19 8 -13 48 -3 43 11 -5 15 -20 18
-36 8z"/>
<path d="M2970 1960 c-19 -12 5 -21 31 -12 22 9 22 9 2 14 -11 3 -26 2 -33 -2z"/>
<path d="M3385 1940 c-3 -5 -1 -10 4 -10 6 0 11 5 11 10 0 6 -2 10 -4 10 -3 0
-8 -4 -11 -10z"/>
<path d="M3420 1940 c0 -5 5 -10 10 -10 6 0 10 5 10 10 0 6 -4 10 -10 10 -5 0
-10 -4 -10 -10z"/>
<path d="M4786 1942 c-3 -6 -1 -14 5 -17 15 -10 25 3 12 16 -7 7 -13 7 -17 1z"/>
<path d="M3300 1929 c0 -5 5 -7 10 -4 6 3 10 8 10 11 0 2 -4 4 -10 4 -5 0 -10
-5 -10 -11z"/>
<path d="M3330 1929 c0 -5 5 -7 10 -4 6 3 10 8 10 11 0 2 -4 4 -10 4 -5 0 -10
-5 -10 -11z"/>
<path d="M3258 1923 c6 -2 18 -2 25 0 6 3 1 5 -13 5 -14 0 -19 -2 -12 -5z"/>
<path d="M4000 1865 c0 -8 5 -15 10 -15 6 0 10 7 10 15 0 8 -4 15 -10 15 -5 0
-10 -7 -10 -15z"/>
<path d="M4284 1865 c27 -21 53 -20 36 0 -7 8 -22 15 -34 15 -21 -1 -21 -1 -2
-15z"/>
<path d="M5053 1873 c-16 -6 -17 -33 -3 -33 11 0 26 28 19 34 -2 2 -10 1 -16
-1z"/>
<path d="M2033 1849 c-125 -26 -167 -41 -171 -61 -5 -27 51 -35 358 -47 383
-16 425 -26 220 -52 -52 -6 -108 -15 -125 -19 l-30 -8 35 -1 c19 0 88 8 153
17 108 17 150 32 134 48 -10 11 -174 23 -437 33 -135 5 -256 14 -270 19 l-25
10 28 11 c16 6 72 20 125 32 53 12 106 25 117 29 l20 9 -20 0 c-11 0 -61 -9
-112 -20z"/>
<path d="M4060 1761 c0 -5 9 -15 19 -20 14 -8 20 -7 25 4 3 8 1 15 -3 15 -5 0
-16 3 -25 6 -9 3 -16 1 -16 -5z"/>
<path d="M3430 1735 c0 -28 12 -32 29 -11 10 12 8 17 -8 26 -19 9 -21 8 -21
-15z"/>
<path d="M3220 1742 c0 -11 49 -26 58 -17 8 7 0 12 -31 20 -16 4 -27 3 -27 -3z"/>
<path d="M4492 1708 c6 -17 36 -34 45 -24 4 4 -1 14 -11 22 -24 17 -39 18 -34
2z"/>
<path d="M3682 1608 c6 -18 25 -20 31 -3 5 10 0 15 -14 15 -12 0 -19 -5 -17
-12z"/>
<path d="M2992 1528 c7 -19 38 -22 38 -4 0 10 -9 16 -21 16 -12 0 -19 -5 -17
-12z"/>
</g>
</svg>
